<svg width="100" height="101" viewBox="0 0 100 101" fill="none" xmlns="http://www.w3.org/2000/svg">
<path d="M87.5003 12.7598H12.5003C7.91699 12.7598 4.16699 16.5098 4.16699 21.0931V71.0931C4.16699 75.6764 7.91699 79.4264 12.5003 79.4264H33.3337V87.7598H66.667V79.4264H87.5003C92.0837 79.4264 95.8337 75.6764 95.8337 71.0931V21.0931C95.8337 16.5098 92.0837 12.7598 87.5003 12.7598ZM87.5003 71.0931H12.5003V21.0931H87.5003V71.0931ZM79.167 33.5931H33.3337V41.9264H79.167V33.5931ZM79.167 50.2598H33.3337V58.5931H79.167V50.2598ZM29.167 33.5931H20.8337V41.9264H29.167V33.5931ZM29.167 50.2598H20.8337V58.5931H29.167V50.2598Z" fill="#28343D"/>
</svg>
