<svg width="100" height="101" viewBox="0 0 100 101" fill="none" xmlns="http://www.w3.org/2000/svg">
<path d="M50 53.3848C56.7917 53.3848 62.7917 55.0098 67.6667 57.1348C72.1667 59.1348 75 63.6348 75 68.5098V75.2598H25V68.5514C25 63.6348 27.8333 59.1348 32.3333 57.1764C37.2083 55.0098 43.2083 53.3848 50 53.3848ZM16.6667 54.4264C21.25 54.4264 25 50.6764 25 46.0931C25 41.5098 21.25 37.7598 16.6667 37.7598C12.0833 37.7598 8.33333 41.5098 8.33333 46.0931C8.33333 50.6764 12.0833 54.4264 16.6667 54.4264ZM21.375 59.0098C19.8333 58.7598 18.2917 58.5931 16.6667 58.5931C12.5417 58.5931 8.625 59.4681 5.08333 61.0098C2 62.3431 0 65.3431 0 68.7181V75.2598H18.75V68.5514C18.75 65.0931 19.7083 61.8431 21.375 59.0098ZM83.3333 54.4264C87.9167 54.4264 91.6667 50.6764 91.6667 46.0931C91.6667 41.5098 87.9167 37.7598 83.3333 37.7598C78.75 37.7598 75 41.5098 75 46.0931C75 50.6764 78.75 54.4264 83.3333 54.4264ZM100 68.7181C100 65.3431 98 62.3431 94.9167 61.0098C91.375 59.4681 87.4583 58.5931 83.3333 58.5931C81.7083 58.5931 80.1667 58.7598 78.625 59.0098C80.2917 61.8431 81.25 65.0931 81.25 68.5514V75.2598H100V68.7181ZM50 25.2598C56.9167 25.2598 62.5 30.8431 62.5 37.7598C62.5 44.6764 56.9167 50.2598 50 50.2598C43.0833 50.2598 37.5 44.6764 37.5 37.7598C37.5 30.8431 43.0833 25.2598 50 25.2598Z" fill="#28343D"/>
</svg>
