<svg width="100" height="101" viewBox="0 0 100 101" fill="none" xmlns="http://www.w3.org/2000/svg">
<path fill-rule="evenodd" clip-rule="evenodd" d="M49.9997 8.59302C26.9997 8.59302 8.33301 27.2597 8.33301 50.2597C8.33301 73.2597 26.9997 91.9264 49.9997 91.9264C72.9997 91.9264 91.6664 73.2597 91.6664 50.2597C91.6664 27.2597 72.9997 8.59302 49.9997 8.59302ZM45.833 79.4264V71.093H54.1663V79.4264H45.833ZM59.0413 50.9682L62.7913 47.1348C67.0413 42.8848 68.4997 35.5932 63.583 28.8015C59.833 23.5932 53.7913 20.3015 47.458 21.3015C40.9997 22.3015 35.7913 26.9682 33.9997 33.0932C33.333 35.4265 34.9997 37.7598 37.4163 37.7598H38.6663C40.2913 37.7598 41.583 36.5932 42.083 35.0515C43.458 31.0932 47.7497 28.4682 52.3747 29.7598C55.2913 30.5932 57.6247 33.1348 58.1663 36.1348C58.708 39.0515 57.7913 41.8015 55.8747 43.6348L50.708 48.8848C48.958 50.6348 47.583 52.8015 46.7497 55.2182C46.1663 56.9265 45.833 58.7598 45.833 60.6765V62.7598H54.1663C54.1663 60.8432 54.3747 59.3432 54.708 58.0098C55.458 55.0098 56.958 53.0932 59.0413 50.9682Z" fill="#28343D"/>
</svg>
