<svg width="100" height="101" viewBox="0 0 100 101" fill="none" xmlns="http://www.w3.org/2000/svg">
<path d="M87.5003 33.593C81.4587 33.593 78.0837 39.593 79.4587 44.0514L64.667 58.8847C63.417 58.5097 61.5837 58.5097 60.3337 58.8847L49.7087 48.2597C51.1253 43.8014 47.7503 37.7597 41.667 37.7597C35.6253 37.7597 32.2087 43.7597 33.6253 48.2597L14.6253 67.218C10.167 65.843 4.16699 69.218 4.16699 75.2597C4.16699 79.843 7.91699 83.593 12.5003 83.593C18.542 83.593 21.917 77.593 20.542 73.1347L39.5003 54.1347C40.7503 54.5097 42.5837 54.5097 43.8337 54.1347L54.4587 64.7597C53.042 69.218 56.417 75.2597 62.5003 75.2597C68.542 75.2597 71.9587 69.2597 70.542 64.7597L85.3753 49.968C89.8337 51.343 95.8337 47.968 95.8337 41.9263C95.8337 37.343 92.0837 33.593 87.5003 33.593Z" fill="#28343D"/>
<path d="M62.5 37.7598L66.4167 29.1348L75 25.2598L66.4167 21.3848L62.5 12.7598L58.6667 21.3848L50 25.2598L58.6667 29.1348L62.5 37.7598Z" fill="#28343D"/>
<path d="M14.5837 46.0931L16.667 37.7598L25.0003 35.6764L16.667 33.5931L14.5837 25.2598L12.5003 33.5931L4.16699 35.6764L12.5003 37.7598L14.5837 46.0931Z" fill="#28343D"/>
</svg>
