<svg width="100" height="101" viewBox="0 0 100 101" fill="none" xmlns="http://www.w3.org/2000/svg">
<path d="M79.1667 21.0931V79.4264H20.8333V21.0931H79.1667ZM83.75 12.7598H16.25C14.1667 12.7598 12.5 14.4264 12.5 16.5098V84.0098C12.5 85.6764 14.1667 87.7598 16.25 87.7598H83.75C85.4167 87.7598 87.5 85.6764 87.5 84.0098V16.5098C87.5 14.4264 85.4167 12.7598 83.75 12.7598ZM45.8333 29.4264H70.8333V37.7598H45.8333V29.4264ZM45.8333 46.0931H70.8333V54.4264H45.8333V46.0931ZM45.8333 62.7598H70.8333V71.0931H45.8333V62.7598ZM29.1667 29.4264H37.5V37.7598H29.1667V29.4264ZM29.1667 46.0931H37.5V54.4264H29.1667V46.0931ZM29.1667 62.7598H37.5V71.0931H29.1667V62.7598Z" fill="#28343D"/>
</svg>
