<svg width="100" height="101" viewBox="0 0 100 101" fill="none" xmlns="http://www.w3.org/2000/svg">
<path fill-rule="evenodd" clip-rule="evenodd" d="M20.8329 25.2598H79.1663C81.4579 25.2598 83.3329 23.3848 83.3329 21.0932C83.3329 18.8015 81.4579 16.9265 79.1663 16.9265H20.8329C18.5413 16.9265 16.6663 18.8015 16.6663 21.0932C16.6663 23.3848 18.5413 25.2598 20.8329 25.2598ZM83.9998 32.7598C83.6248 30.8432 81.9165 29.4265 79.9165 29.4265H20.0832C18.0832 29.4265 16.3748 30.8432 15.9998 32.7598L11.8332 53.5932C11.3332 56.1765 13.2915 58.5932 15.9165 58.5932H16.6665V79.4265C16.6665 81.7182 18.5415 83.5932 20.8332 83.5932H54.1665C56.4581 83.5932 58.3331 81.7182 58.3331 79.4265V58.5932H74.9998V79.4265C74.9998 81.7182 76.8748 83.5932 79.1665 83.5932C81.4582 83.5932 83.3332 81.7182 83.3332 79.4265V58.5932H84.0831C86.7081 58.5932 88.6665 56.1765 88.1665 53.5932L83.9998 32.7598ZM24.9996 75.2598H49.9996V58.5932H24.9996V75.2598Z" fill="#28343D"/>
</svg>
