<svg width="100" height="100" viewBox="0 0 100 100" fill="none" xmlns="http://www.w3.org/2000/svg">
  <path d="M87.5 12.5H12.5C7.91663 12.5 4.16663 16.25 4.16663 20.8333V70.8333C4.16663 75.4167 7.91663 79.1667 12.5 79.1667H33.3333V87.5H66.6666V79.1667H87.5C92.0833 79.1667 95.8333 75.4167 95.8333 70.8333V20.8333C95.8333 16.25 92.0833 12.5 87.5 12.5ZM87.5 70.8333H12.5V20.8333H87.5V70.8333ZM79.1666 33.3333H33.3333V41.6667H79.1666V33.3333ZM79.1666 50H33.3333V58.3333H79.1666V50ZM29.1666 33.3333H20.8333V41.6667H29.1666V33.3333ZM29.1666 50H20.8333V58.3333H29.1666V50Z" fill="#28343D"/>
</svg>
