<svg width="24" height="25" viewBox="0 0 24 25" fill="none" xmlns="http://www.w3.org/2000/svg">
<g id="Property 1=account_circle_24px">
<path id="icon/action/account_circle_24px" fill-rule="evenodd" clip-rule="evenodd" d="M12 2.74023C6.48 2.74023 2 7.22023 2 12.7402C2 18.2602 6.48 22.7402 12 22.7402C17.52 22.7402 22 18.2602 22 12.7402C22 7.22023 17.52 2.74023 12 2.74023ZM12 5.74023C13.66 5.74023 15 7.08023 15 8.74023C15 10.4002 13.66 11.7402 12 11.7402C10.34 11.7402 9 10.4002 9 8.74023C9 7.08023 10.34 5.74023 12 5.74023ZM6 16.7202C7.29 18.6602 9.5 19.9402 12 19.9402C14.5 19.9402 16.71 18.6602 18 16.7202C17.97 14.7302 13.99 13.6402 12 13.6402C10 13.6402 6.03 14.7302 6 16.7202Z" fill="#ADADAD"/>
</g>
</svg>
