<svg width="24" height="25" viewBox="0 0 24 25" fill="none" xmlns="http://www.w3.org/2000/svg">
<g id="Property 1=add_comment_24px">
<path id="icon/editor/add_comment_24px" fill-rule="evenodd" clip-rule="evenodd" d="M20 2.74023C21.1 2.74023 22 3.64023 22 4.74023V22.7402L18 18.7402H4C2.9 18.7402 2 17.8402 2 16.7402V4.74023C2 3.64023 2.9 2.74023 4 2.74023H20ZM13 11.7402H16C16.55 11.7402 17 11.2902 17 10.7402C17 10.1902 16.55 9.74023 16 9.74023H13V6.74023C13 6.19023 12.55 5.74023 12 5.74023C11.45 5.74023 11 6.19023 11 6.74023V9.74023H8C7.45 9.74023 7 10.1902 7 10.7402C7 11.2902 7.45 11.7402 8 11.7402H11V14.7402C11 15.2902 11.45 15.7402 12 15.7402C12.55 15.7402 13 15.2902 13 14.7402V11.7402Z" fill="#ADADAD"/>
</g>
</svg>
