<svg width="24" height="25" viewBox="0 0 24 25" fill="none" xmlns="http://www.w3.org/2000/svg">
<g id="Property 1=add_24px">
<path id="icon/content/add_24px" d="M18 13.7402H13V18.7402C13 19.2902 12.55 19.7402 12 19.7402C11.45 19.7402 11 19.2902 11 18.7402V13.7402H6C5.45 13.7402 5 13.2902 5 12.7402C5 12.1902 5.45 11.7402 6 11.7402H11V6.74023C11 6.19023 11.45 5.74023 12 5.74023C12.55 5.74023 13 6.19023 13 6.74023V11.7402H18C18.55 11.7402 19 12.1902 19 12.7402C19 13.2902 18.55 13.7402 18 13.7402Z" fill="#ADADAD"/>
</g>
</svg>
