<svg width="24" height="25" viewBox="0 0 24 25" fill="none" xmlns="http://www.w3.org/2000/svg">
<path d="M20.54 5.97023L19.15 4.29023C18.88 3.95023 18.47 3.74023 18 3.74023H6C5.53 3.74023 5.12 3.95023 4.84 4.29023L3.46 5.97023C3.17 6.31023 3 6.76023 3 7.24023V19.7402C3 20.8402 3.9 21.7402 5 21.7402H19C20.1 21.7402 21 20.8402 21 19.7402V7.24023C21 6.76023 20.83 6.31023 20.54 5.97023ZM12 18.2402L6.5 12.7402H10V10.7402H14V12.7402H17.5L12 18.2402ZM5.12 5.74023L5.93 4.74023H17.93L18.87 5.74023H5.12Z" fill="#ADADAD"/>
</svg>
