<svg width="24" height="25" viewBox="0 0 24 25" fill="none" xmlns="http://www.w3.org/2000/svg">
<g id="Property 1=call_24px">
<path id="icon/communication/call_24px" d="M19.2222 16.0084L16.6822 15.7184C16.0722 15.6484 15.4722 15.8584 15.0422 16.2884L13.2022 18.1284C10.3722 16.6884 8.05223 14.3784 6.61223 11.5384L8.46223 9.68842C8.89223 9.25842 9.10223 8.65842 9.03223 8.04842L8.74223 5.52842C8.62223 4.51842 7.77223 3.75842 6.75223 3.75842H5.02223C3.89223 3.75842 2.95223 4.69842 3.02223 5.82842C3.55223 14.3684 10.3822 21.1884 18.9122 21.7184C20.0422 21.7884 20.9822 20.8484 20.9822 19.7184V17.9884C20.9922 16.9784 20.2322 16.1284 19.2222 16.0084Z" fill="#ADADAD"/>
</g>
</svg>
