<svg width="24" height="25" viewBox="0 0 24 25" fill="none" xmlns="http://www.w3.org/2000/svg">
<g id="Property 1=check_box_24px">
<path id="Rectangle 230" d="M4 5.74023H20V19.7402H4V5.74023Z" fill="white"/>
<path id="icon/toggle/check_box_24px" fill-rule="evenodd" clip-rule="evenodd" d="M5 3.74023H19C20.1 3.74023 21 4.64023 21 5.74023V19.7402C21 20.8402 20.1 21.7402 19 21.7402H5C3.9 21.7402 3 20.8402 3 19.7402V5.74023C3 4.64023 3.9 3.74023 5 3.74023ZM9.3 17.0302C9.69 17.4202 10.32 17.4202 10.71 17.0302L18.29 9.44023C18.68 9.05023 18.68 8.42023 18.29 8.03023C17.9 7.64023 17.27 7.64023 16.88 8.03023L10 14.9102L7.12 12.0302C6.73 11.6402 6.1 11.6402 5.71 12.0302C5.52275 12.2171 5.41751 12.4707 5.41751 12.7352C5.41751 12.9998 5.52275 13.2534 5.71 13.4402L9.3 17.0302Z" fill="#70C624"/>
</g>
</svg>
