<svg width="24" height="25" viewBox="0 0 24 25" fill="none" xmlns="http://www.w3.org/2000/svg">
<g id="Property 1=check_box_outline_blank_24px">
<rect id="Rectangle 125" x="4" y="4.74023" width="16" height="16" fill="white"/>
<path id="icon/toggle/check_box_outline_blank_24px" fill-rule="evenodd" clip-rule="evenodd" d="M5 3.74023H19C20.1 3.74023 21 4.64023 21 5.74023V19.7402C21 20.8402 20.1 21.7402 19 21.7402H5C3.9 21.7402 3 20.8402 3 19.7402V5.74023C3 4.64023 3.9 3.74023 5 3.74023ZM6 19.7402H18C18.55 19.7402 19 19.2902 19 18.7402V6.74023C19 6.19023 18.55 5.74023 18 5.74023H6C5.45 5.74023 5 6.19023 5 6.74023V18.7402C5 19.2902 5.45 19.7402 6 19.7402Z" fill="#ADADAD"/>
</g>
</svg>
