<svg width="24" height="25" viewBox="0 0 24 25" fill="none" xmlns="http://www.w3.org/2000/svg">
<g id="Property 1=clear_24px">
<path id="icon/content/clear_24px" d="M18.2997 6.45019C18.1129 6.26294 17.8592 6.15771 17.5947 6.15771C17.3302 6.15771 17.0766 6.26294 16.8897 6.45019L11.9997 11.3302L7.10973 6.44019C6.9229 6.25294 6.66924 6.14771 6.40473 6.14771C6.14021 6.14771 5.88656 6.25294 5.69973 6.44019C5.30973 6.83019 5.30973 7.46019 5.69973 7.85019L10.5897 12.7402L5.69973 17.6302C5.30973 18.0202 5.30973 18.6502 5.69973 19.0402C6.08973 19.4302 6.71973 19.4302 7.10973 19.0402L11.9997 14.1502L16.8897 19.0402C17.2797 19.4302 17.9097 19.4302 18.2997 19.0402C18.6897 18.6502 18.6897 18.0202 18.2997 17.6302L13.4097 12.7402L18.2997 7.85019C18.6797 7.47019 18.6797 6.83019 18.2997 6.45019Z" fill="#ADADAD"/>
</g>
</svg>
