<svg width="24" height="25" viewBox="0 0 24 25" fill="none" xmlns="http://www.w3.org/2000/svg">
<path fill-rule="evenodd" clip-rule="evenodd" d="M4 4.02734H20C21.1 4.02734 22 4.9337 22 6.04146V18.1261C22 19.2339 21.1 20.1403 20 20.1403H4C2.9 20.1403 2 19.2339 2 18.1261V6.04146C2 4.9337 2.9 4.02734 4 4.02734ZM13.06 12.4262L19.6 8.30734C19.85 8.14621 20 7.8743 20 7.58226C20 6.90753 19.27 6.5047 18.7 6.85717L12 11.0767L5.3 6.85717C4.73 6.5047 4 6.90753 4 7.58226C4 7.8743 4.15 8.14621 4.4 8.30734L10.94 12.4262C11.59 12.8391 12.41 12.8391 13.06 12.4262Z" fill="#28343D"/>
</svg>
