<svg width="24" height="25" viewBox="0 0 24 25" fill="none" xmlns="http://www.w3.org/2000/svg">
<path d="M16.5 3.74023C14.76 3.74023 13.09 4.55023 12 5.83023C10.91 4.55023 9.24 3.74023 7.5 3.74023C4.42 3.74023 2 6.16023 2 9.24023C2 13.0202 5.4 16.1002 10.55 20.7802L12 22.0902L13.45 20.7702C18.6 16.1002 22 13.0202 22 9.24023C22 6.16023 19.58 3.74023 16.5 3.74023ZM12.1 19.2902L12 19.3902L11.9 19.2902C7.14 14.9802 4 12.1302 4 9.24023C4 7.24023 5.5 5.74023 7.5 5.74023C9.04 5.74023 10.54 6.73023 11.07 8.10023H12.94C13.46 6.73023 14.96 5.74023 16.5 5.74023C18.5 5.74023 20 7.24023 20 9.24023C20 12.1302 16.86 14.9802 12.1 19.2902Z" fill="#ADADAD"/>
</svg>
