<svg width="24" height="25" viewBox="0 0 24 25" fill="none" xmlns="http://www.w3.org/2000/svg">
<g id="Property 1=format_bold_24px">
<path id="icon/editor/format_bold_24px" fill-rule="evenodd" clip-rule="evenodd" d="M15.225 12.5302C16.195 11.8602 16.875 10.7602 16.875 9.74023C16.875 7.48023 15.125 5.74023 12.875 5.74023H7.625C7.075 5.74023 6.625 6.19023 6.625 6.74023V18.7402C6.625 19.2902 7.075 19.7402 7.625 19.7402H13.405C15.475 19.7402 17.365 18.0502 17.375 15.9702C17.385 14.4402 16.525 13.1302 15.225 12.5302ZM9.625 8.24023H12.625C13.455 8.24023 14.125 8.91023 14.125 9.74023C14.125 10.5702 13.455 11.2402 12.625 11.2402H9.625V8.24023ZM9.625 17.2402H13.125C13.955 17.2402 14.625 16.5702 14.625 15.7402C14.625 14.9102 13.955 14.2402 13.125 14.2402H9.625V17.2402Z" fill="#ADADAD"/>
</g>
</svg>
