<svg width="24" height="25" viewBox="0 0 24 25" fill="none" xmlns="http://www.w3.org/2000/svg">
<g id="Property 1=format_italicon">
<path id="icon/editor/format_italicon/editor/24px" d="M10 7.24023C10 8.07023 10.67 8.74023 11.5 8.74023H12.21L8.79 16.7402H7.5C6.67 16.7402 6 17.4102 6 18.2402C6 19.0702 6.67 19.7402 7.5 19.7402H12.5C13.33 19.7402 14 19.0702 14 18.2402C14 17.4102 13.33 16.7402 12.5 16.7402H11.79L15.21 8.74023H16.5C17.33 8.74023 18 8.07023 18 7.24023C18 6.41023 17.33 5.74023 16.5 5.74023H11.5C10.67 5.74023 10 6.41023 10 7.24023Z" fill="#ADADAD"/>
</g>
</svg>
