<svg width="24" height="25" viewBox="0 0 24 25" fill="none" xmlns="http://www.w3.org/2000/svg">
<g id="Property 1=format_color_text_24px">
<path id="Shape" d="M2 19.2402H22C23.1 19.2402 24 20.1402 24 21.2402C24 22.3402 23.1 23.2402 22 23.2402H2C0.9 23.2402 0 22.3402 0 21.2402C0 20.1402 0.9 19.2402 2 19.2402Z" fill="#ADADAD"/>
<path id="Subtract" fill-rule="evenodd" clip-rule="evenodd" d="M6.05951 14.8202L10.6295 3.17023C10.8495 2.61023 11.3995 2.24023 11.9995 2.24023C12.5995 2.24023 13.1395 2.61023 13.3695 3.17023L17.9395 14.8202C18.2095 15.5002 17.6995 16.2402 16.9695 16.2402C16.5295 16.2402 16.1395 15.9702 15.9895 15.5602L15.1195 13.2402H8.86951L8.00951 15.5602C7.84951 15.9702 7.45951 16.2402 7.02951 16.2402C6.28951 16.2402 5.78951 15.5002 6.05951 14.8202ZM11.9995 4.91025L9.61951 11.2402H14.3795L11.9995 4.91025Z" fill="#ADADAD"/>
</g>
</svg>
