<svg width="24" height="25" viewBox="0 0 24 25" fill="none" xmlns="http://www.w3.org/2000/svg">
<path d="M12 13.4902C13.63 13.4902 15.07 13.8802 16.24 14.3902C17.32 14.8702 18 15.9502 18 17.1202V18.7402H6V17.1302C6 15.9502 6.68 14.8702 7.76 14.4002C8.93 13.8802 10.37 13.4902 12 13.4902ZM4 13.7402C5.1 13.7402 6 12.8402 6 11.7402C6 10.6402 5.1 9.74023 4 9.74023C2.9 9.74023 2 10.6402 2 11.7402C2 12.8402 2.9 13.7402 4 13.7402ZM5.13 14.8402C4.76 14.7802 4.39 14.7402 4 14.7402C3.01 14.7402 2.07 14.9502 1.22 15.3202C0.48 15.6402 0 16.3602 0 17.1702V18.7402H4.5V17.1302C4.5 16.3002 4.73 15.5202 5.13 14.8402ZM20 13.7402C21.1 13.7402 22 12.8402 22 11.7402C22 10.6402 21.1 9.74023 20 9.74023C18.9 9.74023 18 10.6402 18 11.7402C18 12.8402 18.9 13.7402 20 13.7402ZM24 17.1702C24 16.3602 23.52 15.6402 22.78 15.3202C21.93 14.9502 20.99 14.7402 20 14.7402C19.61 14.7402 19.24 14.7802 18.87 14.8402C19.27 15.5202 19.5 16.3002 19.5 17.1302V18.7402H24V17.1702ZM12 6.74023C13.66 6.74023 15 8.08023 15 9.74023C15 11.4002 13.66 12.7402 12 12.7402C10.34 12.7402 9 11.4002 9 9.74023C9 8.08023 10.34 6.74023 12 6.74023Z" fill="#ADADAD"/>
</svg>
