<svg width="22" height="25" viewBox="0 0 22 25" fill="none" xmlns="http://www.w3.org/2000/svg">
<g id="Property 1=insert_comment_24px">
<path id="icon/editor/insert_comment_24px" fill-rule="evenodd" clip-rule="evenodd" d="M3.66634 2.74023H18.333C19.3413 2.74023 20.1663 3.64023 20.1663 4.74023V22.7402L16.4997 18.7402H3.66634C2.65801 18.7402 1.83301 17.8402 1.83301 16.7402V4.74023C1.83301 3.64023 2.65801 2.74023 3.66634 2.74023ZM6.41634 14.7402H15.583C16.0872 14.7402 16.4997 14.2902 16.4997 13.7402C16.4997 13.1902 16.0872 12.7402 15.583 12.7402H6.41634C5.91217 12.7402 5.49967 13.1902 5.49967 13.7402C5.49967 14.2902 5.91217 14.7402 6.41634 14.7402ZM15.583 11.7402H6.41634C5.91217 11.7402 5.49967 11.2902 5.49967 10.7402C5.49967 10.1902 5.91217 9.74023 6.41634 9.74023H15.583C16.0872 9.74023 16.4997 10.1902 16.4997 10.7402C16.4997 11.2902 16.0872 11.7402 15.583 11.7402ZM6.41634 8.74023H15.583C16.0872 8.74023 16.4997 8.29023 16.4997 7.74023C16.4997 7.19023 16.0872 6.74023 15.583 6.74023H6.41634C5.91217 6.74023 5.49967 7.19023 5.49967 7.74023C5.49967 8.29023 5.91217 8.74023 6.41634 8.74023Z" fill="#ADADAD"/>
</g>
</svg>
