<svg width="24" height="25" viewBox="0 0 24 25" fill="none" xmlns="http://www.w3.org/2000/svg">
<path d="M21 8.74036C19.55 8.74036 18.74 10.1804 19.07 11.2504L15.52 14.8104C15.22 14.7204 14.78 14.7204 14.48 14.8104L11.93 12.2604C12.27 11.1904 11.46 9.74036 10 9.74036C8.55 9.74036 7.73 11.1804 8.07 12.2604L3.51 16.8104C2.44 16.4804 1 17.2904 1 18.7404C1 19.8404 1.9 20.7404 3 20.7404C4.45 20.7404 5.26 19.3004 4.93 18.2304L9.48 13.6704C9.78 13.7604 10.22 13.7604 10.52 13.6704L13.07 16.2204C12.73 17.2904 13.54 18.7404 15 18.7404C16.45 18.7404 17.27 17.3004 16.93 16.2204L20.49 12.6704C21.56 13.0004 23 12.1904 23 10.7404C23 9.64036 22.1 8.74036 21 8.74036Z" fill="#ADADAD"/>
<path d="M15 9.74023L15.94 7.67023L18 6.74023L15.94 5.81023L15 3.74023L14.08 5.81023L12 6.74023L14.08 7.67023L15 9.74023Z" fill="#ADADAD"/>
<path d="M3.5 11.7402L4 9.74024L6 9.24023L4 8.74023L3.5 6.74023L3 8.74023L1 9.24023L3 9.74024L3.5 11.7402Z" fill="#ADADAD"/>
</svg>
