<svg width="24" height="25" viewBox="0 0 24 25" fill="none" xmlns="http://www.w3.org/2000/svg">
<path d="M19 5.74023V19.7402H5V5.74023H19ZM20.1 3.74023H3.9C3.4 3.74023 3 4.14023 3 4.64023V20.8402C3 21.2402 3.4 21.7402 3.9 21.7402H20.1C20.5 21.7402 21 21.2402 21 20.8402V4.64023C21 4.14023 20.5 3.74023 20.1 3.74023ZM11 7.74023H17V9.74023H11V7.74023ZM11 11.7402H17V13.7402H11V11.7402ZM11 15.7402H17V17.7402H11V15.7402ZM7 7.74023H9V9.74023H7V7.74023ZM7 11.7402H9V13.7402H7V11.7402ZM7 15.7402H9V17.7402H7V15.7402Z" fill="#ADADAD"/>
</svg>
