<svg width="24" height="25" viewBox="0 0 24 25" fill="none" xmlns="http://www.w3.org/2000/svg">
<g id="Property 1=loop_24px">
<path id="icon/av/loop_24px" fill-rule="evenodd" clip-rule="evenodd" d="M12 2.95026V4.74026C16.42 4.74026 20 8.32026 20 12.7403C20 13.7803 19.8 14.7803 19.43 15.6903C19.16 16.3603 18.3 16.5403 17.79 16.0303C17.52 15.7603 17.41 15.3503 17.56 14.9903C17.85 14.3003 18 13.5303 18 12.7403C18 9.43026 15.31 6.74026 12 6.74026V8.53026C12 8.98026 11.46 9.20026 11.14 8.89026L8.35 6.10026C8.15 5.90026 8.15 5.59027 8.35 5.39026L11.15 2.60026C11.46 2.28026 12 2.50026 12 2.95026ZM6 12.7403C6 16.0503 8.69 18.7403 12 18.7403V16.9503C12 16.5003 12.54 16.2803 12.85 16.5903L15.64 19.3803C15.84 19.5803 15.84 19.8903 15.64 20.0903L12.85 22.8803C12.54 23.2003 12 22.9803 12 22.5303V20.7403C7.58 20.7403 4 17.1603 4 12.7403C4 11.7003 4.2 10.7003 4.57 9.79026C4.84 9.12026 5.7 8.94026 6.21 9.45026C6.48 9.72026 6.59 10.1303 6.44 10.4903C6.15 11.1803 6 11.9503 6 12.7403Z" fill="#ADADAD"/>
</g>
</svg>
