<svg width="24" height="25" viewBox="0 0 24 25" fill="none" xmlns="http://www.w3.org/2000/svg">
<g id="Property 1=mail_24px">
<path id="icon/content/mail_24px" fill-rule="evenodd" clip-rule="evenodd" d="M4 4.74023H20C21.1 4.74023 22 5.64023 22 6.74023V18.7402C22 19.8402 21.1 20.7402 20 20.7402H4C2.9 20.7402 2 19.8402 2 18.7402V6.74023C2 5.64023 2.9 4.74023 4 4.74023ZM13.06 13.0802L19.6 8.99023C19.85 8.83023 20 8.56023 20 8.27023C20 7.60023 19.27 7.20023 18.7 7.55023L12 11.7402L5.3 7.55023C4.73 7.20023 4 7.60023 4 8.27023C4 8.56023 4.15 8.83023 4.4 8.99023L10.94 13.0802C11.59 13.4902 12.41 13.4902 13.06 13.0802Z" fill="#ADADAD"/>
</g>
</svg>
