<svg width="24" height="25" viewBox="0 0 24 25" fill="none" xmlns="http://www.w3.org/2000/svg">
<g id="Property 1=more_vert_24px">
<path id="icon/navigation/more_vert_24px" fill-rule="evenodd" clip-rule="evenodd" d="M12 8.74023C13.1 8.74023 14 7.84023 14 6.74023C14 5.64023 13.1 4.74023 12 4.74023C10.9 4.74023 10 5.64023 10 6.74023C10 7.84023 10.9 8.74023 12 8.74023ZM12 10.7402C10.9 10.7402 10 11.6402 10 12.7402C10 13.8402 10.9 14.7402 12 14.7402C13.1 14.7402 14 13.8402 14 12.7402C14 11.6402 13.1 10.7402 12 10.7402ZM10 18.7402C10 17.6402 10.9 16.7402 12 16.7402C13.1 16.7402 14 17.6402 14 18.7402C14 19.8402 13.1 20.7402 12 20.7402C10.9 20.7402 10 19.8402 10 18.7402Z" fill="#ADADAD" fill-opacity="0.54"/>
</g>
</svg>
