<svg width="36" height="36" viewBox="0 0 36 36" xmlns="http://www.w3.org/2000/svg">
  <g>
    <path fill="#020202" d="M3.48,8.11c0,1.05-0.85,1.89-1.89,1.89H1.89C0.85,10,0,9.16,0,8.11V4.67c0-1.05,0.85-1.89,1.89-1.89h3.78c1.05,0,1.89,0.85,1.89,1.89V8.11z"/>
    <path fill="#020202" d="M14.01,8.11c0,1.05-0.85,1.89-1.89,1.89h-3.78c-1.05,0-1.89-0.85-1.89-1.89V4.67c0-1.05,0.85-1.89,1.89-1.89h3.78c1.05,0,1.89,0.85,1.89,1.89V8.11z"/>
    <path fill="#020202" d="M24.54,8.11c0,1.05-0.85,1.89-1.89,1.89h-3.78c-1.05,0-1.89-0.85-1.89-1.89V4.67c0-1.05,0.85-1.89,1.89-1.89h3.78c1.05,0,1.89,0.85,1.89,1.89V8.11z"/>
  </g>
</svg>
