<svg width="25" height="24" viewBox="0 0 25 24" fill="none" xmlns="http://www.w3.org/2000/svg">
<path d="M12.5 2.02002C6.99002 2.02002 2.52002 6.49002 2.52002 12C2.52002 17.51 6.99002 21.98 12.5 21.98C18.01 21.98 22.48 17.51 22.48 12C22.48 6.49002 18.01 2.02002 12.5 2.02002ZM12.5 19.98C8.10002 19.98 4.52002 16.4 4.52002 12C4.52002 7.60002 8.10002 4.02002 12.5 4.02002C16.9 4.02002 20.48 7.60002 20.48 12C20.48 16.4 16.9 19.98 12.5 19.98ZM13.25 5.00002L8.75002 13.5H11.89V19L16.25 10.5H13.25V5.00002Z" [attr.fill]="fillColor"/>
</svg>
