<svg width="24" height="25" viewBox="0 0 24 25" fill="none" xmlns="http://www.w3.org/2000/svg">
<g id="Property 1=radio_button_checked_24px">
<path id="icon/toggle/radio_button_checked_24px" fill-rule="evenodd" clip-rule="evenodd" d="M2 12.7402C2 7.22023 6.48 2.74023 12 2.74023C17.52 2.74023 22 7.22023 22 12.7402C22 18.2602 17.52 22.7402 12 22.7402C6.48 22.7402 2 18.2602 2 12.7402ZM4 12.7402C4 17.1602 7.58 20.7402 12 20.7402C16.42 20.7402 20 17.1602 20 12.7402C20 8.32023 16.42 4.74023 12 4.74023C7.58 4.74023 4 8.32023 4 12.7402Z" fill="#ADADAD"/>
<path id="Path" d="M12 5C7.58172 5 4 8.58172 4 13C4 17.4183 7.58172 21 12 21C16.4183 21 20 17.4183 20 13C20 8.58172 16.4183 5 12 5V5Z" fill="white"/>
<path id="Path_2" d="M12 7.74023C9.23858 7.74023 7 9.97881 7 12.7402C7 15.5017 9.23858 17.7402 12 17.7402C14.7614 17.7402 17 15.5017 17 12.7402C17 9.97881 14.7614 7.74023 12 7.74023V7.74023Z" fill="#70C624"/>
</g>
</svg>
