<svg width="24" height="25" viewBox="0 0 24 25" fill="none" xmlns="http://www.w3.org/2000/svg">
<g id="Property 1=store_24px">
<path id="icon/action/store_24px" fill-rule="evenodd" clip-rule="evenodd" d="M5.00007 6.74023H19.0001C19.5501 6.74023 20.0001 6.29023 20.0001 5.74023C20.0001 5.19023 19.5501 4.74023 19.0001 4.74023H5.00007C4.45007 4.74023 4.00007 5.19023 4.00007 5.74023C4.00007 6.29023 4.45007 6.74023 5.00007 6.74023ZM20.1601 8.54023C20.0701 8.08023 19.6601 7.74023 19.1801 7.74023H4.82007C4.34007 7.74023 3.93007 8.08023 3.84007 8.54023L2.84007 13.5402C2.72007 14.1602 3.19007 14.7402 3.82007 14.7402H4.00007V19.7402C4.00007 20.2902 4.45007 20.7402 5.00007 20.7402H13.0001C13.5501 20.7402 14.0001 20.2902 14.0001 19.7402V14.7402H18.0001V19.7402C18.0001 20.2902 18.4501 20.7402 19.0001 20.7402C19.5501 20.7402 20.0001 20.2902 20.0001 19.7402V14.7402H20.1801C20.8101 14.7402 21.2801 14.1602 21.1601 13.5402L20.1601 8.54023ZM6.00007 18.7402H12.0001V14.7402H6.00007V18.7402Z" fill="#ADADAD"/>
</g>
</svg>
