<svg width="24" height="25" viewBox="0 0 24 25" fill="none" xmlns="http://www.w3.org/2000/svg">
<path d="M19.2217 15.3755L16.6817 15.0834C16.0717 15.0129 15.4717 15.2244 15.0417 15.6575L13.2017 17.5104C10.3717 16.0603 8.05174 13.734 6.61174 10.8739L8.46174 9.0109C8.89174 8.57786 9.10174 7.97363 9.03174 7.35933L8.74174 4.82155C8.62174 3.80442 7.77174 3.03906 6.75174 3.03906H5.02174C3.89174 3.03906 2.95174 3.98569 3.02174 5.12367C3.55174 13.7239 10.3817 20.592 18.9117 21.1258C20.0417 21.1963 20.9817 20.2496 20.9817 19.1117V17.3695C20.9917 16.3523 20.2317 15.4963 19.2217 15.3755Z" fill="#28343D"/>
</svg>
