<svg width="24" height="25" viewBox="0 0 24 25" fill="none" xmlns="http://www.w3.org/2000/svg">
<g id="Property 1=text_fields_24px">
<path id="icon/editor/text_fields_24px" fill-rule="evenodd" clip-rule="evenodd" d="M4 8.24023C3.17 8.24023 2.5 7.57023 2.5 6.74023C2.5 5.91023 3.17 5.24023 4 5.24023H14C14.83 5.24023 15.5 5.91023 15.5 6.74023C15.5 7.57023 14.83 8.24023 14 8.24023H10.5V18.7402C10.5 19.5702 9.83 20.2402 9 20.2402C8.17 20.2402 7.5 19.5702 7.5 18.7402V8.24023H4ZM14 10.2402H20C20.83 10.2402 21.5 10.9102 21.5 11.7402C21.5 12.5702 20.83 13.2402 20 13.2402H18.5V18.7402C18.5 19.5702 17.83 20.2402 17 20.2402C16.17 20.2402 15.5 19.5702 15.5 18.7402V13.2402H14C13.17 13.2402 12.5 12.5702 12.5 11.7402C12.5 10.9102 13.17 10.2402 14 10.2402Z" fill="#ADADAD"/>
</g>
</svg>
