<?xml version="1.0" standalone="no"?>
<!DOCTYPE svg PUBLIC "-//W3C//DTD SVG 20010904//EN"
 "http://www.w3.org/TR/2001/REC-SVG-20010904/DTD/svg10.dtd">
<svg version="1.0" xmlns="http://www.w3.org/2000/svg"
 width="32.000000pt" height="32.000000pt" viewBox="0 0 32.000000 32.000000"
 preserveAspectRatio="xMidYMid meet">

<g transform="translate(0.000000,32.000000) scale(0.100000,-0.100000)"
fill="#000000" stroke="none">
<path d="M20 300 c-18 -18 -20 -33 -20 -140 0 -107 2 -122 20 -140 18 -18 33
-20 140 -20 161 0 160 -1 160 160 0 161 1 160 -160 160 -107 0 -122 -2 -140
-20z m145 -115 c66 -19 127 -38 135 -41 8 -4 -20 -15 -65 -25 -100 -23 -102
-23 -74 0 l23 19 -79 40 c-44 23 -75 41 -70 42 6 0 64 -16 130 -35z"/>
</g>
</svg>
