<svg width="24" height="25" viewBox="0 0 24 25" fill="none" xmlns="http://www.w3.org/2000/svg">
<g id="Property 1=visibility_24px">
<path id="icon/action/visibility_24px" fill-rule="evenodd" clip-rule="evenodd" d="M12 5.24023C7 5.24023 2.73 8.35023 1 12.7402C2.73 17.1302 7 20.2402 12 20.2402C17 20.2402 21.27 17.1302 23 12.7402C21.27 8.35023 17 5.24023 12 5.24023ZM12 17.7402C9.24 17.7402 7 15.5002 7 12.7402C7 9.98023 9.24 7.74023 12 7.74023C14.76 7.74023 17 9.98023 17 12.7402C17 15.5002 14.76 17.7402 12 17.7402ZM9 12.7402C9 11.0802 10.34 9.74023 12 9.74023C13.66 9.74023 15 11.0802 15 12.7402C15 14.4002 13.66 15.7402 12 15.7402C10.34 15.7402 9 14.4002 9 12.7402Z" fill="#ADADAD"/>
</g>
</svg>
