<svg width="36" height="36" viewBox="0 0 36 36" fill="none" xmlns="http://www.w3.org/2000/svg">
<path d="M25.5 16.5C26.01 16.5 26.505 16.56 27 16.635V9.405L15.75 4.5L4.5 9.405V16.77C4.5 23.58 9.3 29.955 15.75 31.5C16.575 31.305 17.37 31.02 18.15 30.675C17.115 29.205 16.5 27.42 16.5 25.5C16.5 20.535 20.535 16.5 25.5 16.5Z" fill="#ADADAD"/>
<path d="M25.5 19.5C22.185 19.5 19.5 22.185 19.5 25.5C19.5 28.815 22.185 31.5 25.5 31.5C28.815 31.5 31.5 28.815 31.5 25.5C31.5 22.185 28.815 19.5 25.5 19.5ZM25.5 21.57C26.43 21.57 27.18 22.335 27.18 23.25C27.18 24.165 26.415 24.93 25.5 24.93C24.585 24.93 23.82 24.165 23.82 23.25C23.82 22.335 24.57 21.57 25.5 21.57ZM25.5 29.625C24.105 29.625 22.89 28.935 22.14 27.87C22.215 26.79 24.405 26.25 25.5 26.25C26.595 26.25 28.785 26.79 28.86 27.87C28.11 28.935 26.895 29.625 25.5 29.625Z" fill="#ADADAD"/>
</svg>
