<svg width="36" height="36" viewBox="0 0 36 36" fill="none" xmlns="http://www.w3.org/2000/svg">
<g id="Property 1=call_36px">
<path id="icon/communication/call_24px" d="M28.8329 22.9022L25.0229 22.4672C24.1079 22.3622 23.2079 22.6772 22.5629 23.3222L19.8029 26.0822C15.5579 23.9222 12.0779 20.4572 9.91785 16.1972L12.6929 13.4222C13.3379 12.7772 13.6529 11.8772 13.5479 10.9622L13.1129 7.18222C12.9329 5.66722 11.6579 4.52722 10.1279 4.52722H7.53285C5.83785 4.52722 4.42785 5.93722 4.53285 7.63222C5.32785 20.4422 15.5729 30.6722 28.3679 31.4672C30.0629 31.5722 31.4729 30.1622 31.4729 28.4672V25.8722C31.4879 24.3572 30.3479 23.0822 28.8329 22.9022Z" fill="#ADADAD"/>
</g>
</svg>
