<svg width="36" height="36" viewBox="0 0 36 36" fill="none" xmlns="http://www.w3.org/2000/svg">
<path d="M27 16.5V19.5H33V16.5H27ZM24 26.415C25.44 27.48 27.315 28.89 28.8 30C29.4 29.205 30 28.395 30.6 27.6C29.115 26.49 27.24 25.08 25.8 24C25.2 24.81 24.6 25.62 24 26.415ZM30.6 8.4C30 7.605 29.4 6.795 28.8 6C27.315 7.11 25.44 8.52 24 9.6C24.6 10.395 25.2 11.205 25.8 12C27.24 10.92 29.115 9.525 30.6 8.4ZM6 13.5C4.35 13.5 3 14.85 3 16.5V19.5C3 21.15 4.35 22.5 6 22.5H7.5V28.5H10.5V22.5H12L19.5 27V9L12 13.5H6ZM23.25 18C23.25 16.005 22.38 14.205 21 12.975V23.01C22.38 21.795 23.25 19.995 23.25 18Z" fill="white"/>
</svg>
