<svg width="36" height="36" viewBox="0 0 36 36" fill="none" xmlns="http://www.w3.org/2000/svg">
<rect x="5" y="6" width="26" height="23" fill="white"/>
<path d="M6 7.5H30V28.5H6V7.5Z" fill="white"/>
<path fill-rule="evenodd" clip-rule="evenodd" d="M7.5 4.5H28.5C30.15 4.5 31.5 5.85 31.5 7.5V28.5C31.5 30.15 30.15 31.5 28.5 31.5H7.5C5.85 31.5 4.5 30.15 4.5 28.5V7.5C4.5 5.85 5.85 4.5 7.5 4.5ZM13.95 24.435C14.535 25.02 15.48 25.02 16.065 24.435L27.435 13.05C28.02 12.465 28.02 11.52 27.435 10.935C26.85 10.35 25.905 10.35 25.32 10.935L15 21.255L10.68 16.935C10.095 16.35 9.14998 16.35 8.56498 16.935C8.2841 17.2153 8.12626 17.5958 8.12626 17.9925C8.12626 18.3893 8.2841 18.7698 8.56498 19.05L13.95 24.435Z" fill="#70C624"/>
</svg>
