<svg width="36" height="36" viewBox="0 0 36 36" fill="none" xmlns="http://www.w3.org/2000/svg">
<rect x="6" y="6" width="24" height="24" fill="white"/>
<path fill-rule="evenodd" clip-rule="evenodd" d="M7.5 4.5H28.5C30.15 4.5 31.5 5.85 31.5 7.5V28.5C31.5 30.15 30.15 31.5 28.5 31.5H7.5C5.85 31.5 4.5 30.15 4.5 28.5V7.5C4.5 5.85 5.85 4.5 7.5 4.5ZM9 28.5H27C27.825 28.5 28.5 27.825 28.5 27V9C28.5 8.175 27.825 7.5 27 7.5H9C8.175 7.5 7.5 8.175 7.5 9V27C7.5 27.825 8.175 28.5 9 28.5Z" fill="#ADADAD"/>
</svg>
