<svg width="36" height="36" viewBox="0 0 36 36" fill="none" xmlns="http://www.w3.org/2000/svg">
<path d="M27.4501 8.56506C27.1698 8.28418 26.7894 8.12633 26.3926 8.12633C25.9958 8.12633 25.6153 8.28418 25.3351 8.56506L18.0001 15.8851L10.6651 8.55006C10.3848 8.26918 10.0044 8.11133 9.60758 8.11133C9.2108 8.11133 8.83033 8.26918 8.55008 8.55006C7.96508 9.13506 7.96508 10.0801 8.55008 10.6651L15.8851 18.0001L8.55008 25.3351C7.96508 25.9201 7.96508 26.8651 8.55008 27.4501C9.13508 28.0351 10.0801 28.0351 10.6651 27.4501L18.0001 20.1151L25.3351 27.4501C25.9201 28.0351 26.8651 28.0351 27.4501 27.4501C28.0351 26.8651 28.0351 25.9201 27.4501 25.3351L20.1151 18.0001L27.4501 10.6651C28.0201 10.0951 28.0201 9.13506 27.4501 8.56506Z" fill="#ADADAD"/>
</svg>
