<svg width="36" height="36" viewBox="0 0 36 36" fill="none" xmlns="http://www.w3.org/2000/svg">
<g id="Property 1=help">
<path id="icon/action/help_24px" fill-rule="evenodd" clip-rule="evenodd" d="M18 3C9.72 3 3 9.72 3 18C3 26.28 9.72 33 18 33C26.28 33 33 26.28 33 18C33 9.72 26.28 3 18 3ZM16.5 28.5V25.5H19.5V28.5H16.5ZM21.255 18.255L22.605 16.875C24.135 15.345 24.66 12.72 22.89 10.275C21.54 8.4 19.365 7.215 17.085 7.575C14.76 7.935 12.885 9.615 12.24 11.82C12 12.66 12.6 13.5 13.47 13.5H13.92C14.505 13.5 14.97 13.08 15.15 12.525C15.645 11.1 17.19 10.155 18.855 10.62C19.905 10.92 20.745 11.835 20.94 12.915C21.135 13.965 20.805 14.955 20.115 15.615L18.255 17.505C17.625 18.135 17.13 18.915 16.83 19.785C16.62 20.4 16.5 21.06 16.5 21.75V22.5H19.5C19.5 21.81 19.575 21.27 19.695 20.79C19.965 19.71 20.505 19.02 21.255 18.255Z" fill="white"/>
</g>
</svg>
