<svg width="36" height="36" viewBox="0 0 36 36" fill="none" xmlns="http://www.w3.org/2000/svg">
<path fill-rule="evenodd" clip-rule="evenodd" d="M18 3.31505V6.00005C24.63 6.00005 30 11.37 30 18C30 19.56 29.7 21.06 29.145 22.425C28.74 23.43 27.45 23.7 26.685 22.935C26.28 22.53 26.115 21.915 26.34 21.375C26.775 20.34 27 19.185 27 18C27 13.035 22.965 9.00005 18 9.00005V11.685C18 12.36 17.19 12.69 16.71 12.225L12.525 8.04005C12.225 7.74005 12.225 7.27505 12.525 6.97505L16.725 2.79005C17.19 2.31005 18 2.64005 18 3.31505ZM9 18C9 22.965 13.035 27 18 27V24.315C18 23.64 18.81 23.31 19.275 23.775L23.46 27.96C23.76 28.26 23.76 28.725 23.46 29.025L19.275 33.21C18.81 33.69 18 33.36 18 32.685V30C11.37 30 6 24.63 6 18C6 16.44 6.3 14.94 6.855 13.575C7.26 12.57 8.55 12.3 9.315 13.065C9.72 13.47 9.885 14.085 9.66 14.625C9.225 15.66 9 16.815 9 18Z" fill="#ADADAD"/>
</svg>
