<svg width="36" height="36" viewBox="0 0 36 36" fill="none" xmlns="http://www.w3.org/2000/svg">
<path fill-rule="evenodd" clip-rule="evenodd" d="M6 6H30C31.65 6 33 7.35 33 9V27C33 28.65 31.65 30 30 30H6C4.35 30 3 28.65 3 27V9C3 7.35 4.35 6 6 6ZM19.59 18.51L29.4 12.375C29.775 12.135 30 11.73 30 11.295C30 10.29 28.905 9.69003 28.05 10.215L18 16.5L7.95 10.215C7.095 9.69003 6 10.29 6 11.295C6 11.73 6.225 12.135 6.6 12.375L16.41 18.51C17.385 19.125 18.615 19.125 19.59 18.51Z" fill="#ADADAD"/>
</svg>
