<svg width="36" height="36" viewBox="0 0 36 36" fill="none" xmlns="http://www.w3.org/2000/svg">
<g id="Property 1=Questions">
<g id="groups_black_36dp (1) 1">
<g id="Group">
<g id="help_center_black_36dp (1) 1">
<g id="Group_2">
<path id="Vector" d="M28.5 4.5H7.5C5.85 4.5 4.5 5.85 4.5 7.5V28.5C4.5 30.15 5.85 31.5 7.5 31.5H28.5C30.15 31.5 31.5 30.15 31.5 28.5V7.5C31.5 5.85 30.15 4.5 28.5 4.5ZM18.015 27C16.965 27 16.125 26.16 16.125 25.11C16.125 24.045 16.965 23.235 18.015 23.235C19.08 23.235 19.89 24.045 19.89 25.11C19.875 26.145 19.08 27 18.015 27ZM22.53 15.9C21.39 17.565 20.31 18.09 19.725 19.155C19.485 19.59 19.395 19.875 19.395 21.27H16.665C16.665 20.535 16.545 19.335 17.13 18.3C17.865 16.995 19.26 16.215 20.07 15.06C20.925 13.845 20.445 11.565 18.015 11.565C16.425 11.565 15.645 12.765 15.315 13.785L12.84 12.735C13.515 10.725 15.33 9 17.985 9C20.205 9 21.72 10.005 22.5 11.28C23.16 12.36 23.55 14.385 22.53 15.9Z" fill="#28343D"/>
</g>
</g>
</g>
</g>
</g>
</svg>
