<svg width="36" height="36" viewBox="0 0 36 36" fill="none" xmlns="http://www.w3.org/2000/svg">
<path fill-rule="evenodd" clip-rule="evenodd" d="M7.49962 9H28.4996C29.3246 9 29.9996 8.325 29.9996 7.5C29.9996 6.675 29.3246 6 28.4996 6H7.49962C6.67462 6 5.99962 6.675 5.99962 7.5C5.99962 8.325 6.67462 9 7.49962 9ZM30.2396 11.7C30.1046 11.01 29.4896 10.5 28.7696 10.5H7.22962C6.50962 10.5 5.89462 11.01 5.75962 11.7L4.25962 19.2C4.07962 20.13 4.78462 21 5.72962 21H5.99962V28.5C5.99962 29.325 6.67462 30 7.49962 30H19.4996C20.3246 30 20.9996 29.325 20.9996 28.5V21H26.9996V28.5C26.9996 29.325 27.6746 30 28.4996 30C29.3246 30 29.9996 29.325 29.9996 28.5V21H30.2696C31.2146 21 31.9196 20.13 31.7396 19.2L30.2396 11.7ZM8.99962 27H17.9996V21H8.99962V27Z" fill="#ADADAD"/>
</svg>
