<svg width="36" height="36" viewBox="0 0 36 36" fill="none" xmlns="http://www.w3.org/2000/svg">
<g id="Property 1=Team">
<g id="groups_black_36dp (1) 1">
<g id="Group">
<path id="Vector" d="M18 19.125C20.445 19.125 22.605 19.71 24.36 20.475C25.98 21.195 27 22.815 27 24.57V27H9V24.585C9 22.815 10.02 21.195 11.64 20.49C13.395 19.71 15.555 19.125 18 19.125ZM6 19.5C7.65 19.5 9 18.15 9 16.5C9 14.85 7.65 13.5 6 13.5C4.35 13.5 3 14.85 3 16.5C3 18.15 4.35 19.5 6 19.5ZM7.695 21.15C7.14 21.06 6.585 21 6 21C4.515 21 3.105 21.315 1.83 21.87C0.72 22.35 0 23.43 0 24.645V27H6.75V24.585C6.75 23.34 7.095 22.17 7.695 21.15ZM30 19.5C31.65 19.5 33 18.15 33 16.5C33 14.85 31.65 13.5 30 13.5C28.35 13.5 27 14.85 27 16.5C27 18.15 28.35 19.5 30 19.5ZM36 24.645C36 23.43 35.28 22.35 34.17 21.87C32.895 21.315 31.485 21 30 21C29.415 21 28.86 21.06 28.305 21.15C28.905 22.17 29.25 23.34 29.25 24.585V27H36V24.645ZM18 9C20.49 9 22.5 11.01 22.5 13.5C22.5 15.99 20.49 18 18 18C15.51 18 13.5 15.99 13.5 13.5C13.5 11.01 15.51 9 18 9Z" fill="#28343D"/>
</g>
</g>
</g>
</svg>
