<svg xmlns="http://www.w3.org/2000/svg" width="181" height="48" viewBox="0 0 181 48">
    <g fill="none" fill-rule="nonzero">
        <path fill="#FFF" d="M79.558 13.634c-5.787 0-8.933 3.539-8.933 9.757a14.886 14.886 0 0 0 .615 4.476c1.14 3.538 3.826 5.405 7.968 5.405 4.46 0 7.328-1.84 8.493-5.405.421-1.382.624-2.822.602-4.267 0-6.453-3.036-9.966-8.745-9.966zM82.49 27.86a3.368 3.368 0 0 1-3.062 1.587 3.271 3.271 0 0 1-2.984-1.587 8.171 8.171 0 0 1-.906-4.24c0-3.95 1.457-6.141 3.884-6.141 2.589 0 3.994 2.16 3.994 6.277a7.753 7.753 0 0 1-.926 4.104zm40.688-13.894h-8.104v18.968h8.557c3.962 0 6.525-1.756 7.612-5.087.413-1.366.612-2.788.59-4.215-.007-6.232-2.99-9.666-8.655-9.666zm2.324 13.881a4.96 4.96 0 0 1-3.288.95h-2.324V18.149h2.324c3.146 0 4.7 1.756 4.7 5.392.006 2.095-.454 3.487-1.412 4.32v-.014zm-61.188-6.505H57.81v-7.376h-4.81v18.968h4.81v-7.415h6.512v7.428h4.835V13.966H64.32l-.007 7.376zm95.798 5.347l-6.408-12.723h-6v18.968h4.53V20.172l3.736 7.688 2.479 5.087h6.214V13.966h-4.531l-.02 12.723zm14.953-5.568c-2.59-.767-3.78-.923-3.78-2.276 0-.866.731-1.392 2.103-1.392 1.735 0 2.641.715 2.641 1.996v.079h4.428v-.209c0-3.85-2.247-5.613-6.888-5.613-4.777 0-7.243 2.03-7.243 5.737a5.6 5.6 0 0 0 1.127 3.643c1.217 1.476 3.1 1.951 5.618 2.68 1.974.585 2.978.767 2.978 2.03v.077c-.052.95-.907 1.587-2.395 1.587-1.664 0-2.59-.5-2.836-1.587h-4.647c.285 3.851 2.505 5.406 7.03 5.406 4.835 0 7.482-1.984 7.767-5.406v-.605a5.59 5.59 0 0 0-1.47-4.059c-1.171-1.138-2.66-1.587-4.433-2.088zm-37.025 4.027h7.295V21.12h-7.295v-3.057h7.884v-4.098h-12.616v18.968h12.914v-4.137h-8.182v-3.65zm-30.92.917l-3.166-12.1h-4.92l-3.456 12.06-2.2-12.06h-4.81l2.81 13.882 1.028 5.087h5.114l1.47-5.087 2.265-7.806 2.103 7.806 1.373 5.087h4.997l1.094-5.087 2.984-13.881h-4.318l-2.369 12.099z"/>
        <path fill="#C20016" d="M24.57.104a1.29 1.29 0 0 0-.608.234 15.461 15.461 0 0 0-3.747.358l-.751-.273c-.162 0-.272.234-.42.319l-2.448.65c-.271 0-.53.28-.796.11l-.777.209c-.09-.046-.213-.143-.317-.059-.213.566-.815.501-1.217.78a2.42 2.42 0 0 0-1.074.404c-.609.17-.99 1.008-1.709.78a1.645 1.645 0 0 0-.395.293c-.01.204-.053.404-.13.592l-.375.15a1.18 1.18 0 0 1-.647.553l-1.65 1.73c-.35.17-1.01-.065-1.03.488l-.31.761a1.728 1.728 0 0 0-.719.833 3.45 3.45 0 0 0-.796.384v.468L3.016 12.47l-.356.143a8.464 8.464 0 0 1-.738 1.203c-.045.085-.103.208 0 .3.079.207.101.431.065.65l-.589.761c.025.133.069.263.13.384-.233.852-.415 1.73-.648 2.602l-.336.449c-.084.273.187.65-.169.845a.915.915 0 0 0-.103.586l.272.318a10.654 10.654 0 0 0-.227 2.687l-.298.553c.085.696.233 1.379.272 2.068.609.358.227 1.06.382 1.607l.376 2.05.647 1.456v.397l1.003 2.095c-.065.234-.31.461-.077.696l.46 1.105c.355.501.763.976 1.074 1.497l.4.15 1.01 1.183.92.761c.016.24.046.48.09.716a10.583 10.583 0 0 0 1.89 1.736c.34.232.644.51.907.827l.731.104 1.185 1.034c.46.28 1.158.377 1.236 1.04 0 .163.168.124.252.17a9.2 9.2 0 0 0 1.897.481l2.123.742c.582.21 1.19.34 1.806.383.214.501.764.339 1.159.501.466-.104.951-.15 1.43-.227.143.28.46.214.693.318l.951-.15c.214.111.317.489.609.398.24-.028.477-.07.712-.124.479.039.906.059 1.372.124.345-.108.657-.303.906-.566.757.15 1.385-.228 2.058-.365h.544c.647-.533 1.495-.481 2.233-.76a7.6 7.6 0 0 1 .822 0 16.615 16.615 0 0 1 2.835-1.302c.04-.24.182-.442.234-.65.313-.183.637-.346.97-.488l1.43-1.1c.486.079.804-.233 1.16-.461l.543-1.119c.178-.07.36-.128.544-.176l1.521-1.86c.253 0 .53-.124.609-.377.29-.527.375-1.145.88-1.587l.926-.404c.084-.208.174-.423.271-.65l-.103-.97c.446-.917.867-1.86 1.223-2.816.848-.442.337-1.568.505-2.348l.44-1.392a1.339 1.339 0 0 0-.103-.462.807.807 0 0 1 .272-.13l.375-1.184c0-.215-.175-.332-.24-.508l.059-2.237-.188-1.613.55-.866v-.143l-.382-.553c.04-.318.583-.702.065-.975.123-.501-.356-.755-.647-1.054a5.402 5.402 0 0 1-.421-1.906c-.039-.215 0-.468-.123-.65l-.518-.365-.9-2.016a1.433 1.433 0 0 1-.213-.195v-.97l-.401-.253c-.162-.462-.292-.95-.421-1.418l-.945-.592c-.253-.443-.842-.65-.906-1.184a5.292 5.292 0 0 0-.337-.93c-.11-.111-.291-.124-.42-.19l-.648-.65-.447-.039-.608-1.183a1.166 1.166 0 0 0-.647.058 3.827 3.827 0 0 0-1.075-.611l-.149-.378a1.329 1.329 0 0 1-.796-.253c-.084-.208-.142-.43-.214-.65L33.99 3.09a5.098 5.098 0 0 1-.375-.612c-.162-.13-.363.04-.55.04a18.285 18.285 0 0 0-2.311-.93l-.55-.463c-.68.274-1.295-.175-1.91-.26-.382-.084-.796-.13-1.178-.254-.214-.195-.376-.546-.68-.526a2.99 2.99 0 0 0-1.45.104l-.42-.04.006-.045z"/>
        <path fill="#FFF" d="M21.898 5.074l2-.085 1.327-.488c.375 0 .718.17 1.074.17l.395-.384a29.176 29.176 0 0 0-1.553-.547c-.544 0-1.068.085-1.6.13a29.565 29.565 0 0 0-2.737 0l-1.554.469-.647.91c.57-.13 1.159-.214 1.741-.318l1.554.143zM5.03 19.97l.757-1.138.802-1.867.583-2.303.09-.462 1.619-1.821c.53-.462 1.346-.696 1.599-1.412l.647-1.3c.498-.313 1.01-.593 1.514-.885.382-.501.719-1.015 1.075-1.523h.123l2.59-.741c.336-.254.646-.547.99-.807v-.169l-1.742.046-1.01.527-2.906.975-.123.059-.595 1.06-1.133 1.952-2.758 2.745a13.669 13.669 0 0 1-1.242 1.951c-.084.65-.246 1.269-.311 1.952 0 .396-.401.65-.647.93l-1.114 2.914.065 2.16a.588.588 0 0 0 0 .214l.693-.93c.155-.742.323-1.431.433-2.127zM14.92 11.227l-2.279 1.6c-.336.443-.44 1.054-.945 1.36l-1.294.924-1.45 3.324 1.573-1.21.647-1.848c.505-.227 1.049-.357 1.56-.533.382-.527.712-1.1 1.068-1.646.563-.364 1.133-.702 1.702-1.06l1.878-1.84.168-.144c.498-.13 1.003-.234 1.489-.403l.647-.65h2.31l.55-.417 2.778-.3c.115-.035.235-.057.356-.064a2.352 2.352 0 0 0-.272-.488l-1.851-.293-.505.046-5.424.923-1.347 1.1-1.36 1.62zM30.294 8.135c.108-.095 0-.285 0-.414s-.196-.196-.35-.135l-.136.264c-.04.095 0 .197.047.285a.377.377 0 0 0 .44 0zM37.808 11.11a.32.32 0 0 1 .162.3l.084.403 1.495 2.537 1.01 1.665c-.143.403.123.722.194 1.08.188.15.486.065.712.13h.104l.103-1.139-2.44-3.512-.356-1.269-1.638-1.515a8.102 8.102 0 0 1-.86-1.145c-.525-.254-1.036-.514-1.58-.742v.254l.764 1.08 2.246 1.873zM24.765 11.839a3.16 3.16 0 0 0-1.016-.553c-.524.045-1.113 0-1.586.065-.214.17-.447.3-.647.462.102.099.215.186.336.26h2.59l.323-.234z"/>
        <path fill="#FFF" d="M20.215 12.665a2.702 2.702 0 0 0-.169-.507c-.4-.046-.828-.046-1.216-.078-.44.299-.868.65-1.295.95l-1.159.142-1.1 1.607c-.317.807-1.14 1.177-1.741 1.73l-.194 1.184 2.336-1.9a39.17 39.17 0 0 1 1.366-1.86c.647-.208 1.295-.325 1.942-.533l1.23-.735zM39.154 22.064l-.589-2.133a2.974 2.974 0 0 1 0-1.568l-1.741-2.894a8.673 8.673 0 0 1-.11-.872l-1.825-1.88v.507l1.217 1.952c.03.28.046.563.045.845l1.43 2.641c0 .482-.051.976-.084 1.464l.822 2.96.04.169-.234 2.894-.078.996.143.65.738-1.3-.13-1.484c.188-.65.065-1.476.486-2.049a2.614 2.614 0 0 0-.13-.898zM23.814 14.057c-.43-.044-.863-.066-1.295-.065-.343.15-.647.364-1.016.507-.343 0-.835-.188-1.114.104-.271.15-.57.228-.841.384l-1.346 1.034c-.33.085-.648.228-.945.339a22.524 22.524 0 0 0-.803 1.756l1.185-.423.692-1.054c.283-.07.57-.12.861-.15l1.411-.552 1.489-.995c.34.013.68.05 1.016.11l1.01-.488a2.715 2.715 0 0 0-.304-.507zM29.769 19.547l.356-2.725-.46-1.334-.44 3.766a45.799 45.799 0 0 0-.7 2.323l1.095-1.757.149-.273zM31.872 18.617a.052.052 0 0 0 .04 0c.362.592.983 1.073 1.1 1.756.123.234.168.501.31.716l.084-1.373-1.365-2.01-.887-1.789-.188 2.765.647 1.86c.097-.644.201-1.281.26-1.925zM22.804 16.841l-1.055.377-2.02.703-1.476 2.023c.04.045.13.039.208.045a3.227 3.227 0 0 1 1.139-.442c.298-.338.53-.735.841-1.034l2.085-.65 1.236-.04c.065-.174.122-.352.168-.533-.369-.195-.764-.293-1.126-.449zM42.404 18.923l-.402-.404c-.162.124-.317.313-.479.462.166.893.257 1.798.272 2.706.402.469.343 1.139.486 1.717v.313l-.486 2.478-.188 1.184-.647.904-.317 2.225-.647 2.03-1.392 1.664-.226.254-.421 1.464-1.625 1.223c-.107.245-.191.5-.252.76l1.294-.272c.376-.358.777-.65 1.165-.976l.719-1.457.757-.716 1.049-2.309.848-1.034.291-2.264.485-1.268.376-4.463.213-.754a17.562 17.562 0 0 1-.873-3.467zM21.4 19.82c-.253.384-.506.8-.739 1.204.059.065.059.169.15.188h.29c.311-.377.55-.988 1.133-.95.57-.182 1.224-.149 1.683-.61-.298-.111-.608-.176-.919-.274-.544.104-1.055.273-1.599.442zM32.228 32.505l1.178-1.815c.188-.358.609-.586.907-.872l.317-1.496.252-.338.44-1.88-.796.611-.867 1.184-.143 1.692-.116.15-1.295 1.098c-.129.353-.278.699-.446 1.035l-1.496 1.054c-.123.234-.187.5-.297.741l1.016-.384c.472-.253.81-.806 1.346-.78zM6.04 31.236l-.066-1.08-.86-1.229h-.04c-.083.208-.297.397-.252.612.169.741.59 1.372.525 2.218a6.683 6.683 0 0 0 1.74 1.71v-.65l-1.048-1.58zM31.367 37.728l1.056-1.184.271-.15 2.415-1.71c.647-1.145 1.217-2.31 1.896-3.428l.648-.78.103-1.27c-.401.235-.822.463-1.197.723l-.356 1.522c-.363.319-.784.572-1.178.885l-.868 1.69-2.841 2.134a5.254 5.254 0 0 0-1.198 1.607c.408.046.835-.273 1.25-.039z"/>
        <path fill="#FFF" d="M26.927 39.654a5.573 5.573 0 0 1 1.832.188c.33-.039.68 0 1.01-.039a.872.872 0 0 0-.169-.26c-.207-.078-.55.091-.647-.208l-.045-.046a60.442 60.442 0 0 1-1.832-.292c-.065-.059.045-.085.045-.13l.337-.332c-.052-.085-.168-.104-.253-.15a7.608 7.608 0 0 1-1.747.65c-.04 0-.09 0-.123-.038l.336-2.518.059-.045.271.15.505-.866.421.046c.039-.228 0-.501 0-.703l.563-.481.596-2.283 1.294-1.21c.104.039.065.175.169.214l2.336-3.7h.227l.822-1.1.401.084c.526-.459 1.025-.947 1.495-1.463l.9-1.88-.078-1.665c.15-.078.26.123.395.188v-1.463l-.984-2.66-1.41-2.245a19.6 19.6 0 0 0-1.476-1.75c-.15-.13-.356-.169-.46-.338h.039c.213 0 .427.124.647 0 .447.11.647-.403.906-.65.116-.275.18-.568.188-.866-.11-.331-.252-.65-.382-.956.206-.222.32-.516.317-.82 0-.65-.712-.995-1.048-1.483a1.246 1.246 0 0 1-.343-1.138c.248-.135.503-.256.763-.364h.596c-.168-.417-.647-.462-.99-.443-.15 0-.318.124-.44 0 .21-.49.188-1.05-.059-1.522 0 0-.039 0 0-.045-.149.078-.272.273-.401.338-.13-.234-.214-.5-.324-.742-.142.046-.233.235-.401.235l-.466-.716a5.809 5.809 0 0 0-.906-.364h-.04c-.122.364.104.65.299.884v.124l-1.263-.228c-.233.111-.505.163-.738.254l.505.507v.059c-.647.078-1.327-.195-1.87.17.278.233.589.402.86.65v.045c-.323.26-.692.442-1.029.65.466.534.764 1.243 1.45 1.562v.084l-1.23 1.529-1.294 4.775a9.896 9.896 0 0 0-.207 2.745h.039c.174-.17.33-.423.55-.534v.423l-.169 2.036c-.27.371-.567.723-.886 1.054-.486.254-.984.507-1.47.78l-3.41 1.041c-.143.056-.29.097-.441.124l-1.812-1.568-1.347-.293c-.757-.566-1.553-1.014-2.33-1.541l-2.46-.195-1.812.871c-.563.078-.777.65-1.133 1.054-.505.397-.401 1.04-.53 1.587l-1.871 1.301c-.298.65-.563 1.301-.842 1.952l-.382 1.86 2.15-2.771h.045l.31.865-.647 1.249.42 2.491h.085l.596-1.092c.233-1.353.932-2.511 1.404-3.76l1.877-1.269.421-.273c.089.118.152.253.188.397l-2.395 2.14-.803 2.023c-.13.468-.214.956-.317 1.438l1.534-1.497c.058 0 .065.04.084.066l-.168.565-.544 1.952-.065.254-.822 1.99c0 .696-.045 1.301-.038 1.952l1.585-2.726s0-.039.046 0h.039v2.153l.563 1.1c.106-.904.261-1.8.466-2.687l.103-.293.926-2.01s0-.039.058 0l-.213 2.557c.356.65.479 1.43 1.055 1.99.117.154.242.302.375.442l.194-2.179c.018-.403.06-.805.123-1.203l.647-2.413c0-.358.356-.534.57-.742h.039L14 30.358l.401 3.129c.188.273.363.527.544.8l.039-.254.13-2.66.044-.189.758-1.951c.145-.389.311-.769.498-1.139 0 0 .045 0 .065.04l-.065 2.12c-.037.35-.037.704 0 1.054l.466 1.015h.039c.065-.32.123-.65.214-.97.077 0 .09.085.123.143l.485 1.38c.317.513.583 1.053.906 1.56.053-.172.115-.341.188-.507l1.346 1.88c.112-.106.231-.203.356-.293l.059.059c.142.345-.123.95.343 1.1h.039l-.59 2.536-.064.273-1.295.807a.45.45 0 0 1-.045.254l-1.152.546v.462l-.279.267.065.494c.18-.052.34-.154.466-.293.188 0 .337.13.524.085l1.58-1.184h.058l.926 1.21c.485.065.757.65 1.294.65l.382.43c.162-.384-.375-.573-.188-.957 0-.487-.524-.591-.86-.76l-.382-.612c.058-.059.168-.04.233 0 .165.078.342.128.524.15l2.505.78.272.377c.13 0 .278.144.401 0l.143-.123.647.104c-.084-.189 0-.586-.356-.566 0-.598-.693-.3-1.03-.468-.588-.293-1.197-.534-1.773-.865 0 0 0-.046.045-.066l1.295.274c.045-.065 0-.17.065-.208.176.013.352.041.524.084 0-.084-.084-.091-.123-.17.227-.139.465-.258.712-.357l.13.04 2.33 1.3c.13.085.259-.058.382-.11l.692.28a2.927 2.927 0 0 0-.084-.424c-.252-.13-.647-.234-.647-.591a3.61 3.61 0 0 1-1.515-.65c.013.019.078 0 .136-.02zM7.761 24.244h-.058c.233-.534.446-1.139.738-1.653.375-.15.757-.253 1.132-.377v.059l-1.812 1.97zm2.971-3.598l.738-.65c.486.04.97.105 1.45.195v.059c-.7.156-1.457.286-2.175.396h-.013zm13.593 19.131l-.544-.104-.356-.3c-.194.06-.384.132-.57.215l-1.45-.338-.11-.065a.046.046 0 0 0 0-.039l.596-2.394c.168-.058.291.163.44.13l.48-.806c.129 0 .213.176.362.169.207-.293.395-.65.608-.885l.59.527c0 .163-.091.319-.104.488-.013.17.181.065.226.13l.15 2.303v.65l-.318.32zm.298-6.153c-.609.5-1.217.975-1.832 1.437l-.524-.527h-.046l-.479.443h-.045c-.362-.423-.68-.905-1.055-1.301-.07.13-.126.268-.168.41h-.078l-.803-1.497c-.246-.058-.563.04-.796 0a.13.13 0 0 1 0-.11l-.647-3.025c0-.312-.33 0-.505-.085 0-1.053-.058-2.075-.084-3.122-.472.179-.935.383-1.385.612l-.648 1.71-.084.085a5.523 5.523 0 0 1 .084-2.114c-.563.208-1.139.397-1.689.65a11.065 11.065 0 0 0-1.295 2.03h-.058c0-.65 0-1.347.058-1.952-.589.248-1.171.488-1.74.787h-.06c.06-.227.111-.448.189-.65l.822-1.106c.09-.176-.207-.247-.253-.397.382-.396.887-.696 1.295-1.08.408-.383.932-.396.951-.89-.563.168-1.113.416-1.663.552.213-.423.524-.8.757-1.223.42-.26.9-.462 1.295-.76l-.253-.573-1.87-.28v-.084c.647-.176 1.34-.332 2.02-.462.42.273.847.533 1.261.826.492.065.99.065 1.534.084l.085.065 1.178 1.627 1.242-.046 2.842-.527 2.59-1.372 1.294-1.522.039-.085.265-3.363v-.527c-.162-.045-.278.104-.42 0l1.553-5.73c.084-.723.712-1.21 1.094-1.816a4.471 4.471 0 0 0-.59.085l-.045-.045c.158-.428.356-.84.59-1.23a4.91 4.91 0 0 1 2.317-.839c.213 0 .239.234.42.332.317.253.298.65.337 1.021l-.486 1.015-.737.8c0 .65-.046 1.379-.04 1.99l1.056 2.388 2.647 3.402c.107.152.18.325.214.507l.925 2.895v.15a.644.644 0 0 0-.297.045c.11.67.132 1.353.064 2.03L34.1 24.77c-.479.352-.945.703-1.418 1.06a1.43 1.43 0 0 1-.148-.188c-.214.397-.402.8-.609 1.204-.149 0-.246-.196-.362-.215l-.945 1.86-1.619 1.776-.187-.104c-.421.611-.758 1.3-1.204 1.86a5.257 5.257 0 0 1-.227-.527 1.793 1.793 0 0 1-.434.15c.061-.3.09-.605.085-.91-.356.247-.706.507-1.049.76h-.084c.008-.29-.02-.581-.084-.865l-.486.339h-.058l-.13-1.022c-.103-.162-.355 0-.485-.084a16.465 16.465 0 0 0-.544-1.262c-.323.507-.55 1.08-.86 1.607v.078l.608.11c.084.144.147.3.188.462 0 .403.382.078.55.15 0 .461-.149.89-.149 1.333.317-.15.608-.332.926-.468.129.13.343.175.394.364l-1.145 1.386zm1.91-1.373l.09-.124.524.482v.09l-.692 1.952-.887.846h-.059a3.51 3.51 0 0 1-.381-.93l1.404-2.316z"/>
        <path fill="#FFF" d="M14.94 40.135c-.402-.403-1.017-.091-1.535-.143l-1.663-2.01-1.243-.508c-.207-.35-.278-.754-.46-1.118l-1.294-.703c.213.65.46 1.36.738 2.03.543.533.841 1.353 1.624 1.522.58.382 1.108.836 1.573 1.353l.13.169c.867.273 1.767.468 2.647.722l.757-.15c.007-.741-.822-.82-1.275-1.164zM17.95 38.45l1.766.124-.718-.742-1.114-.039-.57-.449-.886-.071c-.278-.332-.563-.722-.841-1.08-.402-.11-.797-.24-1.198-.358l1.224 2.05c.776.207 1.747-.072 2.336.565zM34.694 38.574l-.647.253-.835.976-2.298 1.015-.589.904c0 .065.046.124.11.085l1.942-.8 1.068-.13c.223-.415.479-.81.764-1.184a10.79 10.79 0 0 0 1.113-.358c.065-.176.169-.338.227-.527-.31-.059-.563-.364-.855-.234z"/>
    </g>
</svg>
