<svg xmlns="http://www.w3.org/2000/svg" width="150" height="31" viewBox="0 0 150 31">
  <g fill="none" fill-rule="evenodd">
    <path fill="#1D1D1B" fill-rule="nonzero" d="M129.777674,16.3276232 L130.266483,20.7496873 L130.112475,20.7496873 L125.498928,7.41330352 L119.994812,7.41330352 L119.994812,29.8745815 L124.795847,29.8745815 L124.795847,20.9462235 L124.307039,16.5241594 L124.461047,16.5241594 L129.074594,29.8605432 L134.57871,29.8605432 L134.57871,7.39926522 L129.777674,7.39926522 L129.777674,16.3276232 Z M146.142709,17.1348254 L143.792412,15.4010955 C142.627307,14.5377401 142.111715,14.060438 142.111715,13.0637188 C142.111715,12.0669996 142.935323,11.5896974 144.24774,11.5896974 C145.805582,11.6219233 147.350673,11.8914719 148.834503,12.3898804 L148.834503,7.58878225 C147.287538,7.16319827 145.692968,6.9577993 144.093732,6.97811626 C139.406529,6.97811626 136.547335,9.28039725 136.547335,13.3865996 C136.547335,15.9134934 137.886536,18.1245255 140.370753,19.9214277 L143.069243,21.9710193 C143.892852,22.5816853 144.261132,23.0940832 144.261132,23.7959982 C144.261132,24.6944493 143.343779,25.3331919 141.904138,25.3331919 C140.129538,25.3136804 138.37907,24.8998011 136.768303,24.118879 L136.768303,29.3692028 C138.451422,29.9122035 140.203392,30.1843681 141.964403,30.1764049 C146.885966,30.1764049 149.999608,27.7056644 149.999608,23.5713854 C150.026392,21.1357405 148.680495,18.9949 146.142709,17.1348254 Z M38.1763335,15.2396551 L34.6877152,15.2396551 L33.6498345,7.42032267 L29.0697674,7.42032267 L29.0697674,29.8816007 L33.6498345,29.8816007 L34.6609312,21.3954491 L38.2031175,21.3954491 L39.2142142,29.8535241 L43.7674972,29.8535241 L43.7674972,7.39224607 L39.2142142,7.39224607 L38.1763335,15.2396551 Z M105.08281,29.8535241 L117.919051,29.8535241 L117.919051,24.820794 L110.426222,24.820794 L110.426222,20.4338256 L116.178089,21.0093959 L116.178089,15.5274402 L110.426222,16.1381062 L110.426222,12.417957 L117.919051,12.417957 L117.919051,7.42032267 L105.08281,7.42032267 L105.08281,29.8535241 Z M54.0994321,7.0412886 C48.5953164,7.0412886 46.0642267,10.6912463 46.0642267,18.6369234 C46.0642267,26.5826005 48.6020124,30.2325581 54.0994321,30.2325581 C59.5968517,30.2325581 62.1681175,26.5826005 62.1681175,18.6369234 C62.1681175,10.6912463 59.6303318,7.0412886 54.0994321,7.0412886 Z M54.0994321,24.9190621 C52.2982069,24.9190621 51.5348624,23.0238917 51.5348624,18.6369234 C51.5348624,14.249955 52.2982069,12.3547847 54.0994321,12.3547847 C55.9006573,12.3547847 56.6640018,14.249955 56.6640018,18.6720191 C56.6640018,23.0940832 55.9006573,24.9190621 54.0994321,24.9190621 Z M79.7116491,17.1278063 L79.6179051,23.2906194 L79.457201,23.2906194 L77.3144795,7.39926522 L71.997852,7.39926522 L69.8685226,23.2906194 L69.7145145,23.2906194 L69.5939864,17.1067488 L68.5226257,7.39926522 L63.3867903,7.39926522 L66.3196402,29.8605432 L72.5871004,29.8605432 L74.2677975,20.735649 L74.6025977,14.2359167 L74.7699978,14.2359167 L75.1047981,20.735649 L76.7520152,29.8605432 L83.0194753,29.8605432 L85.9523253,7.39926522 L80.7964018,7.39926522 L79.7116491,17.1278063 Z M94.1415387,7.42032267 L87.8138145,7.42032267 L87.8138145,29.8816007 L94.1415387,29.8816007 C100.221511,29.8816007 102.846345,26.2246238 102.846345,18.6509617 C102.846345,11.0772995 100.214815,7.42032267 94.1415387,7.42032267 Z M94.1415387,24.5330088 L93.2509701,24.5330088 L93.2509701,12.7618953 L94.1415387,12.7618953 C96.7395884,12.7618953 97.3489249,14.6219699 97.3489249,18.6579808 C97.3489249,22.6939917 96.7395884,24.5330088 94.1415387,24.5330088 L94.1415387,24.5330088 Z"/>
    <path fill="#EA0029" fill-rule="nonzero" d="M23.8892495,12.1755264 C23.5716273,11.431325 23.3756476,10.9848042 23.3756476,10.9848042 L23.7135436,10.8359639 C23.5628692,10.4753229 23.384371,10.1269759 23.1796679,9.79408195 C22.7674347,9.11753523 22.4362966,8.650718 22.4362966,8.650718 C22.1408838,8.63091691 21.8582845,8.52246619 21.6253461,8.33950652 C21.4940319,8.20908991 21.4005957,8.04539388 21.3550293,7.86592382 L21.3550293,7.86592382 C21.70754,8.22420541 22.2096536,8.3926013 22.7066134,8.31921011 C23.9500708,8.25832091 24.5582837,7.22996991 23.8892495,6.19485344 C23.5243218,5.6265542 23.0377515,5.55889953 23.0107199,5.2138607 C22.9836882,4.86882188 23.2742788,4.84176001 23.5175639,4.82146361 C23.760849,4.80116721 23.8419441,4.82146361 24.2541773,4.82146361 C24.3294913,4.79733053 24.3877764,4.73711454 24.4095008,4.66099431 C24.4312251,4.58487407 24.4135146,4.5029208 24.362304,4.44259745 C24.1363491,4.12359397 23.8519944,3.85040042 23.5243218,3.63750686 L23.0782991,3.31952991 C23.0107199,3.2383443 23.0782991,3.19098603 23.3351,3.05567669 C23.591901,2.92036735 23.8622179,2.7241688 23.8149124,2.60915586 C23.767607,2.49414292 23.4702585,2.52120479 23.422953,2.38589544 C23.3756476,2.2505861 23.7743649,1.70934873 23.6527223,1.52668112 C23.5310797,1.34401351 23.0512674,1.52668112 22.8485298,1.64169406 C22.6457921,1.756707 22.6863397,1.46579191 22.5173916,1.11398762 C22.3484436,0.762183332 22.1186743,0.363020772 21.8415996,0.505095582 C21.5645248,0.647170391 21.7740204,1.2019387 21.6253461,1.22900056 C21.4766719,1.25606243 20.7941219,0.288600633 20.0507506,0.051809284 C19.3073793,-0.184982065 19.4695694,0.450971845 19.4966011,0.728355997 C19.5236328,1.00574015 19.4966011,1.2019387 19.2398001,1.10722216 C18.9829991,1.01250562 18.2463858,0.410379042 17.7800893,0.67423226 C17.3137927,0.938085478 17.4962566,1.68905233 18.0706798,2.15586956 C18.6451031,2.62268679 18.8343249,2.73093427 18.996515,2.69710693 C19.0854816,2.66679639 19.1714498,2.62829399 19.253316,2.58209399 L18.9897571,2.39266091 C18.6406385,2.15289055 18.3325542,1.85817017 18.0774378,1.51991565 C18.0233744,1.43873005 18.1788066,1.41166818 18.5504922,1.68228686 L19.5979699,2.45355011 C19.9918169,2.34703883 20.4020386,2.31491863 20.8076377,2.35883357 C20.9935369,2.38097545 21.1754769,2.42878802 21.3482714,2.50090838 L21.3144818,2.56856306 C20.661666,2.5094513 20.0110568,2.7031571 19.4966011,3.10980043 C18.9376696,3.86508353 18.4511946,4.67149514 18.0436482,5.51830672 C17.7272424,6.36255915 17.4808709,7.23147947 17.3070348,8.1162461 C17.1990568,9.0742557 16.9883467,10.0178397 16.6785482,10.9306804 C16.1743957,11.7266762 15.5365053,12.4293681 14.7930883,13.0076788 C13.7575626,13.6124159 12.646272,14.0765395 11.4884651,14.3878341 C11.6236235,14.3269449 11.6574131,11.1336444 9.26510923,9.13783164 C7.25912889,7.35796186 4.33542075,7.07646959 2.0273762,8.44098852 C0.817589284,9.14664852 0.0526351656,10.4229957 0,11.8237221 C0,11.8237221 0.729855431,11.2824847 1.18939404,10.923915 C2.60855738,9.81437835 4.65620734,9.88203302 3.662793,10.1120589 C2.73139978,10.3254017 1.90967305,10.8714259 1.35158413,11.6478199 C1.25697324,11.8237221 1.31779453,11.8440185 1.31779453,11.8440185 C1.56307017,11.9506548 1.82754959,12.0059122 2.09495541,12.0063897 C1.73569235,12.2269469 1.38830294,12.4663261 1.05423562,12.7235292 C0.898803448,12.879135 0.824466321,12.9400242 0.878529686,13.1023954 C1.00693018,13.5015579 1.67596432,13.6503982 1.67596432,13.6503982 C1.37308551,13.8743382 1.11611192,14.1545684 0.91907721,14.4757852 C0.850415002,14.6119307 0.850415002,14.7726296 0.91907721,14.9087751 C1.02044602,15.0846772 1.59486928,15.0711463 1.59486928,15.0711463 C1.59486928,15.0711463 1.06775146,15.7138657 1.19615196,16.1874484 C1.20744324,16.2924573 1.27469632,16.3830914 1.37185789,16.4242397 C1.76513944,16.445649 2.1593819,16.4068652 2.54097817,16.3092268 C2.34452421,16.5039584 2.21849498,16.7586789 2.18280837,17.0331318 C2.17210302,17.0707204 2.17210302,17.1105561 2.18280837,17.1481447 L2.23687174,17.2157994 C2.49367272,17.4255289 3.38571825,17.08049 3.78443557,16.8639951 L3.83174102,16.8639951 C3.55466627,17.9126425 4.09529992,19.5701819 4.25749002,19.4010453 C4.4015516,19.2342526 4.55983302,19.0803218 4.73054446,18.9409935 C4.84904032,19.3547306 5.0314567,19.7473637 5.27117812,20.1046538 C5.27117812,20.1046538 5.66989544,19.7663805 5.71720088,19.9896409 C5.84079369,20.3604413 6.10890504,20.6654535 6.46057215,20.8353243 L6.49436176,20.801497 C6.49436176,20.6932495 6.49436176,20.5647056 6.49436176,20.4226308 C6.5172865,20.2665876 6.56045101,20.1142059 6.62276225,19.9693445 L6.62276225,19.9693445 C6.9613917,20.8899204 7.62157094,21.6565835 8.48119043,22.1275285 C8.56228548,22.0598738 8.96776072,21.4509818 9.21780378,21.6065876 C9.21780378,21.6065876 10.049028,22.0531084 10.6775146,22.4793328 L11.8128453,23.8324262 L11.8128453,23.8324262 C12.3307846,24.6389019 12.6908421,25.536607 12.8738389,26.4777239 C12.9549339,26.85659 13.0630606,27.4993094 13.1441557,28.0473123 L13.1441557,28.0473123 L13.1441557,28.1487943 L13.1441557,28.1487943 L13.2184928,28.8659338 L13.2184928,28.8659338 L13.2184928,28.8659338 C13.2247021,28.8949213 13.2247021,28.9248973 13.2184928,28.9538849 C12.924848,29.1412219 12.6201889,29.3106659 12.3061735,29.4612949 C12.1439834,29.5627769 12.1101938,30.1378416 12.1101938,30.1378416 C12.1101938,30.1378416 12.7859859,29.8469265 13.4077146,29.650728 C13.7685115,29.7036406 14.1236753,29.7896998 14.4687081,29.9078157 C14.8812873,30.0934098 15.3274725,30.192417 15.7797447,30.1987308 C16.4217472,30.1987308 16.4555368,30.0363596 16.6380007,30.0837179 C16.8204645,30.1310761 16.9353492,30.2325581 16.9894125,30.2325581 C17.0656077,30.1149034 17.083124,29.9685698 17.0368544,29.8362231 C16.9905847,29.7038765 16.8857385,29.6004175 16.7528853,29.5560114 C16.3609259,29.4274676 16.1311566,29.5898388 15.7256814,29.5086532 C15.3915809,29.4098395 15.0713899,29.2688891 14.7728146,29.0891942 C14.4863877,28.8898425 14.2803278,28.5947998 14.1916334,28.2570417 C14.1240542,27.7293353 14.0497171,26.1800433 14.0699908,26.0717959 L14.1646017,25.6658678 C14.1646017,25.5914477 14.2592126,25.2870017 14.2592126,25.2870017 L14.2592126,25.2870017 C14.2592126,25.2870017 15.0904368,24.4142564 15.421575,24.0353903 L15.7391972,23.6971169 C19.7331283,22.0463429 21.1455338,20.3143833 21.1455338,20.3143833 L21.463156,20.5782365 C22.811822,19.4100304 23.6927595,17.7927743 23.9433129,16.0250772 C24.011663,15.4200895 24.0071252,14.8090699 23.9297971,14.2051665 C23.9297971,14.2051665 24.3960936,14.008968 24.3960936,14.008968 C24.2817012,13.3840032 24.1120867,12.7704453 23.8892495,12.1755264 L23.8892495,12.1755264 Z M22.5376654,4.00960755 C22.6660659,3.79311261 22.8620456,3.711927 22.9769303,3.75928527 C23.3433036,3.89952661 23.6669948,4.13265805 23.9162812,4.43583198 L23.9162812,4.48319025 C23.5036651,4.42745264 23.08544,4.42745264 22.6728238,4.48319025 C22.4160228,4.49672119 22.3011382,4.32081904 22.5173916,4.00284209 L22.5376654,4.00960755 Z M22.1389481,3.60367953 L22.1389481,3.60367953 C21.7231875,3.33701006 21.2102348,3.27002846 20.7400585,3.42101191 L20.6927531,3.42101191 C20.8717818,3.18516067 21.1625514,3.06236748 21.456224,3.09859503 C21.7498965,3.13482258 22.0021922,3.32460849 22.1186743,3.59691406 L22.1389481,3.60367953 Z M19.9628976,4.50348665 C19.9776041,4.47310836 20.0108933,4.4564452 20.0439927,4.46289385 L20.0439927,4.46289385 C20.0749199,4.46635488 20.0982487,4.49262901 20.098056,4.52378306 C20.1333287,4.90296504 20.360384,5.23754323 20.699511,5.41005925 C20.7282061,5.42248469 20.7428174,5.45466549 20.7333006,5.48447939 L20.7333006,5.48447939 C20.7255664,5.51301429 20.7016926,5.53425919 20.6724793,5.53860312 L20.6251739,5.53860312 C20.4322416,5.53539347 20.2462218,5.46615502 20.098056,5.34240458 C19.7398863,5.09208229 19.9223501,4.59820319 19.9628976,4.50348665 Z M20.9495541,9.81437835 C20.8549432,10.3623812 20.787364,10.3759121 20.7468164,10.3826776 L20.7468164,10.3826776 C20.7173536,10.3803972 20.6914621,10.3622529 20.6792372,10.3353193 L20.5711105,10.20001 C20.4972245,10.1284712 20.4375973,10.0435223 20.3954046,9.94968769 C20.3884227,9.81220478 20.4067485,9.67460833 20.4494679,9.54375966 C20.4480028,9.51446099 20.4480028,9.48510727 20.4494679,9.45580859 C20.4507482,9.41182446 20.4769841,9.37242671 20.5170471,9.35432658 C20.5694978,9.34184505 20.6244835,9.36019406 20.6589635,9.40168485 C20.7592268,9.51487107 20.8517929,9.63466325 20.9360382,9.76025461 C20.9481099,9.77550985 20.9530347,9.79523069 20.9495541,9.81437835 Z M19.422264,7.00670949 C19.4201955,6.981946 19.4201955,6.95705285 19.422264,6.93228935 C19.422264,6.93228935 19.4560536,6.87140015 19.4830853,6.87140015 L19.5979699,6.87140015 C19.6153523,6.86460718 19.6346509,6.86460718 19.6520333,6.87140015 L19.6520333,6.87140015 C19.6520333,6.87140015 19.9155922,7.25026631 19.8885605,7.32468645 L19.8412551,7.45323032 C19.8141513,7.55316559 19.7732064,7.64881029 19.7196125,7.73737994 C19.70449,7.74377049 19.6874295,7.74377049 19.672307,7.73737994 L19.5979699,7.73737994 C19.5805875,7.74417291 19.561289,7.74417291 19.5439066,7.73737994 L19.5439066,7.73737994 L19.4966011,7.66972527 C19.4228428,7.5764763 19.3656902,7.47119815 19.3276531,7.35851378 C19.3309675,7.23623602 19.3609522,7.11616309 19.4155061,7.00670949 L19.422264,7.00670949 Z M19.422264,10.8359639 L19.422264,10.8359639 C19.4205364,11.0911849 19.4500404,11.3456569 19.510117,11.5936962 C19.5585704,11.7451231 19.619605,11.8922222 19.6925808,12.0334516 L19.7398863,12.0334516 C19.8190046,11.8369073 19.8668901,11.6291716 19.8818026,11.4177941 C19.8859678,11.16833 19.8655959,10.9190612 19.8209813,10.6735927 L19.8209813,10.6735927 C20.0825979,10.9481949 20.2088658,11.324943 20.1656353,11.7019437 C20.1381109,12.0618448 19.9394717,12.3865673 19.6317595,12.5746889 C19.5641803,12.5746889 19.4560536,12.4326141 19.3411689,12.2499465 C19.140739,11.7874236 19.1733934,11.2568261 19.4290219,10.822433 L19.422264,10.8359639 Z M18.0436482,9.00252229 C18.054232,8.97823478 18.0780045,8.9623687 18.1044695,8.96192949 L18.1044695,8.96192949 C18.1417924,8.96192949 18.1720487,8.99221952 18.1720487,9.02958416 C18.1749003,9.25734983 18.2020867,9.48415631 18.2531437,9.70613087 C18.2805911,9.8039053 18.3167796,9.89900605 18.3612704,9.99028049 C18.4089532,9.852934 18.4362751,9.70933377 18.4423655,9.56405607 C18.4497706,9.34873579 18.43391,9.13324489 18.39506,8.92133669 C18.3854213,8.9021872 18.3854213,8.87959697 18.39506,8.86044748 C18.4124424,8.85365451 18.431741,8.85365451 18.4491234,8.86044748 L18.4491234,8.86044748 C18.4665058,8.85365451 18.4858044,8.85365451 18.5031868,8.86044748 C18.7467567,9.1200466 18.8630492,9.47426767 18.820809,9.82790928 C18.7261982,10.3623812 18.4085759,10.6600617 18.2869333,10.6600617 L18.2869333,10.6600617 C18.1788066,10.6600617 18.0504061,10.4503323 17.9828269,10.3420848 C17.7863232,9.91183514 17.8089654,9.41315067 18.0436482,9.00252229 L18.0436482,9.00252229 Z M13.4752938,15.5582599 C13.8482918,15.3943462 14.2294955,15.2498238 14.6173824,15.12527 L14.6173824,15.1590974 C14.1172963,15.5582599 13.4279884,16.1603865 13.7388527,16.3836469 C13.9213166,16.5189563 15.9351769,15.964188 17.4016457,15.0305535 C18.3584232,14.441992 19.2770796,13.7934691 20.1521194,13.0888644 L20.1521194,13.2918285 C19.1208906,14.7386354 17.690673,15.8530528 16.0365457,16.4986599 C13.8402215,17.4661217 12.6575854,17.1752066 12.4548478,17.0331318 C12.1642572,16.7625131 12.4210582,16.0724354 13.4752938,15.5582599 Z M1.50701631,9.82114382 L1.50701631,9.82114382 C1.86502928,9.49315824 2.29239345,9.25032933 2.75723163,9.11076977 C4.44196383,8.50880467 6.3042496,8.66416845 7.86621965,9.5369942 C10.1233652,10.7683092 10.5693879,12.3717249 10.5693879,12.6423436 L10.5693879,12.6423436 C10.4950508,12.5340961 9.21780378,11.2892502 9.16374042,11.2418919 C8.01736539,10.1499323 6.5361673,9.47764247 4.96031377,9.33403018 C2.83156876,9.09723883 1.82463858,9.56405607 1.50701631,9.82114382 Z M6.84577363,10.7683092 C8.00619256,11.1131073 8.99201111,11.8871617 9.60300526,12.9332587 L9.56245774,12.9332587 C8.54568992,12.1741165 7.36522531,11.6643278 6.1159182,11.4448559 C4.93175791,11.1817569 3.71181777,11.1200057 2.50718857,11.2621883 L2.50718857,11.2621883 C2.81805292,11.025397 4.29127962,9.94292222 6.84577363,10.7683092 Z M2.15577669,14.6990456 L2.15577669,14.6990456 C2.23920983,13.8700956 2.59861267,13.0932998 3.17622271,12.4935033 C3.90607814,11.8846113 5.60231623,11.850784 7.37289144,12.3040703 L7.37289144,12.3040703 C6.27925688,12.330767 5.20003701,12.5601566 4.18991081,12.980617 C3.34045973,13.3120612 2.62498296,13.9164932 2.15577669,14.6990456 Z M6.03482315,14.1307464 C4.89680036,14.5330811 3.94972318,15.3461127 3.37896033,16.4107088 L3.37896033,16.4107088 C3.37896033,15.9777189 3.57494003,13.7045219 6.51463552,12.9738515 C7.5327935,12.7773873 8.58753409,12.9449934 9.49487853,13.4474342 L9.49487853,13.4474342 C8.30542083,13.4183368 7.12413827,13.6516235 6.03482315,14.1307464 Z M6.86604739,19.0830683 L6.82549987,19.0830683 C5.89290682,17.601431 6.39299295,15.240283 7.13636422,14.7802312 L7.13636422,14.7802312 C6.93205088,15.2025722 6.82139464,15.6641547 6.81198403,16.1333246 C7.20550501,15.6507131 7.63471655,15.198407 8.09598895,14.7802312 L8.1432944,14.820824 C7.70402955,15.5582599 6.75792066,17.5067145 6.86604739,19.0830683 Z M8.21763152,20.8623862 L8.17032608,20.8623862 C7.42019689,18.426818 8.46091667,15.950657 9.12995081,15.4906053 C9.12995081,15.4906053 9.12995081,15.7882858 9.04885577,16.268634 L10.8126731,15.0508499 L10.8802523,15.138801 C10.136881,16.0115462 8.29196865,18.6162511 8.22438945,20.8623862 L8.21763152,20.8623862 Z M12.4886374,17.9938281 C12.7096108,17.9088707 12.9352406,17.8365885 13.1644294,17.7773332 C13.1644294,17.7773332 12.4480899,18.8124496 12.8400493,18.9409935 C13.0968502,19.03571 15.4823962,18.4809417 17.2732452,17.4525907 C18.4318516,16.7580779 19.5385552,15.9802592 20.5846263,15.12527 L20.5846263,15.3214686 C20.2940357,15.8018168 18.9424516,17.716444 15.6040388,19.0695374 C12.9008705,20.1520121 11.5492864,19.8340352 11.2924854,19.6446021 C10.8937681,19.3333906 11.1843587,18.5147691 12.4953953,17.9938281 L12.4886374,17.9938281 Z M16.4622947,21.2480178 C13.6509997,22.6011112 11.8533928,22.3778508 11.5695602,22.1884177 C11.0829899,21.8433789 12.1912889,20.6594222 13.3536512,20.2399632 L13.4009567,20.3008524 C12.8130176,20.8353243 12.8197755,21.2480178 13.1036082,21.2818451 C14.956481,20.991875 16.7234145,20.2990918 18.2801754,19.252205 C19.3319267,18.4987436 20.2598968,17.5857152 21.0306491,16.5460181 L21.0711966,16.7219203 C20.8887328,17.5134799 20.0304768,19.5431201 16.4690527,21.2480178 L16.4622947,21.2480178 Z M20.9495541,3.73898887 C21.0306491,3.69839607 21.0644387,3.73898887 21.1928392,3.73898887 C21.3212397,3.73898887 21.6726516,3.78634714 21.6996832,3.85400181 C21.7267149,3.92165648 21.6185882,4.13138596 21.4766719,4.2058061 C21.3664186,4.28812119 21.2152395,4.28812119 21.1049862,4.2058061 C20.9804514,4.08474984 20.9224789,3.91063823 20.9495541,3.73898887 L20.9495541,3.73898887 Z M21.6253461,5.82275274 C21.661738,6.29740456 21.8355188,6.75114976 22.1254322,7.1284879 C22.4573235,7.46667849 22.8721384,7.71164588 23.3283421,7.83886195 L23.3283421,7.87945475 C22.7781198,7.93595559 22.225564,7.7970637 21.7672625,7.48705766 C21.2945058,7.05987241 21.2107131,6.34828535 21.5712828,5.82275274 L21.6253461,5.82275274 Z M22.5646971,13.6503982 C22.4540045,14.0997244 22.1696024,14.486651 21.7740204,14.7261075 C21.7384095,14.7340025 21.7015045,14.7340025 21.6658936,14.7261075 L21.6185882,14.7261075 C21.3482714,14.6043291 21.3685451,14.1375118 21.4158506,13.6706946 C21.47292,13.2908203 21.5726685,12.9186152 21.7131991,12.561158 C21.7213623,12.5379269 21.7426998,12.521906 21.7672625,12.5205652 C21.7839897,12.5108969 21.8045986,12.5108969 21.8213258,12.5205652 C21.832638,12.5368292 21.832638,12.5584249 21.8213258,12.5746889 C21.8213258,12.6694055 21.7740204,13.17005 21.7740204,13.4677306 C21.7728874,13.6352194 21.7841817,13.8025612 21.80781,13.9683752 C22.005802,13.6346344 22.1237777,13.2594697 22.1524639,12.8723695 C22.1894624,12.4379125 22.1894624,12.0010914 22.1524639,11.5666343 C22.1482641,11.5314887 22.1718347,11.4990428 22.2065273,11.4922142 L22.2470748,11.4922142 C22.2743816,11.4886526 22.301116,11.5020347 22.314654,11.5260415 C22.6566342,12.1807636 22.7270499,12.9440469 22.5106337,13.6503982 L22.5646971,13.6503982 Z M22.9501511,29.4314228 C23.0739933,29.4792767 23.1714628,29.5699186 23.2207997,29.683113 C23.2701365,29.7963074 23.2672325,29.9226289 23.2127362,30.0338766 C23.155961,30.0338766 23.0424107,29.9313313 22.8295038,29.8864677 C22.616597,29.8416041 22.616597,29.9633767 21.9069075,29.9954221 C21.3486851,29.9888183 20.7961267,29.8933563 20.2746216,29.7134225 L20.1539744,29.7134225 C19.7565483,29.8544223 18.5997544,30.2325581 18.5997544,30.2325581 C18.6058354,30.0427986 18.6515857,29.8557879 18.7345954,29.681377 C18.8410489,29.5660136 19.0894402,29.4955136 19.2242812,29.3032412 C19.2887687,29.1884316 19.2887687,29.052733 19.2242812,28.9379235 C19.1901567,28.8481517 19.1498627,28.7603904 19.103634,28.6751511 L18.7416923,28.0855155 C18.4202159,27.4672484 18.0477638,26.8716643 17.6274798,26.3037905 C17.2166755,25.8937078 16.7653385,25.5182917 16.2790698,25.1822011 C16.2790698,25.1822011 16.6410114,24.3426112 16.6764959,24.3426112 C18.0285605,23.765725 19.3145516,23.0701992 20.5159161,22.2660685 L20.7288229,22.0930233 L21.0907646,22.4711591 C20.9772142,22.7147043 19.3165408,24.637429 19.1391184,24.8232924 C19.0281881,24.9368035 18.9653347,25.0821137 18.9616961,25.2334737 L18.9616961,25.5923823 C19.0113743,25.6885186 19.0113743,25.7910639 19.0113743,25.9000183 L19.103634,26.2332906 C19.1391184,26.342245 19.1746029,26.4640176 19.2171843,26.5793811 L19.3520253,26.9062443 C19.3875098,27.0087896 19.437188,27.1113349 19.4797694,27.2202893 L19.6288042,27.5791979 L19.7707421,27.8611976 L19.9055831,28.1303791 C19.9675013,28.2378118 20.0386902,28.340675 20.11849,28.438015 L20.253331,28.6623329 L20.3597844,28.7969236 C20.7980999,29.0886976 21.3020198,29.2899835 21.8359385,29.3865592 C22.2404616,29.4955136 22.5243374,29.3096502 22.9501511,29.4314228 Z"/>
  </g>
</svg>
