<?xml version="1.0" encoding="UTF-8"?>
<svg width="640px" height="512px" viewBox="0 0 640 512" version="1.1" xmlns="http://www.w3.org/2000/svg" xmlns:xlink="http://www.w3.org/1999/xlink">
    <!-- Generator: Sketch 57.1 (83088) - https://sketch.com -->
    <title>Shape</title>
    <desc>Created with Sketch.</desc>
    <g id="Page-1" stroke="none" stroke-width="1" fill="none" fill-rule="evenodd">
        <g id="wifi-slash-copy" fill="#FFFFFF" fill-rule="nonzero">
            <path d="M5.09,154.87 C-1.57,161.03 -1.7,171.46 4.74,177.84 L38.98,211.8 C45.12,217.89 55,218.03 61.38,212.18 C68.37,205.78 75.69,199.96 83.03,194.17 L18.07,143.96 C13.77,147.67 9.28,151 5.09,154.87 Z M476.84,336.77 L522.26,291.56 C528.78,285.1 528.55,274.5 521.69,268.39 C456.75,210.65 372.78,185.73 291.35,193.41 L208.19,129.14 C334.13,90.78 475.94,118.13 578.62,212.19 C585,218.04 594.88,217.9 601.02,211.81 L635.26,177.85 C641.7,171.46 641.56,161.03 634.91,154.88 C496.46,26.82 298.08,-0.76 133.42,71.35 L45.47,3.37 C38.49,-2.05 28.43,-0.8 23.01,6.18 L3.37,31.45 C-2.05,38.42 -0.8,48.47 6.18,53.9 L594.54,508.63 C601.52,514.06 611.57,512.8 617,505.82 L636.64,480.55 C642.06,473.58 640.81,463.52 633.83,458.1 L476.84,336.77 Z M118.31,268.39 C111.45,274.49 111.23,285.09 117.74,291.56 L152.02,325.57 C157.99,331.5 167.61,331.89 173.96,326.37 C187.31,314.77 201.97,305.71 217.11,297.82 L148.75,244.99 C138.27,252.14 128.01,259.77 118.31,268.39 Z M256,416 C256,451.35 284.65,480 320,480 C351.91,480 378.15,456.58 382.99,426.02 L294.29,357.46 C271.77,367.37 256,389.82 256,416 Z" id="Shape"></path>
        </g>
    </g>
</svg>