<svg [attr.width]="width" [attr.height]="height" viewBox="0 0 24 25" fill="none" xmlns="http://www.w3.org/2000/svg">
<path d="M11.9995 2.76025C6.48953 2.76025 2.01953 7.23025 2.01953 12.7403C2.01953 18.2503 6.48953 22.7203 11.9995 22.7203C17.5095 22.7203 21.9795 18.2503 21.9795 12.7403C21.9795 7.23025 17.5095 2.76025 11.9995 2.76025ZM11.9995 20.7203C7.59953 20.7203 4.01953 17.1403 4.01953 12.7403C4.01953 8.34025 7.59953 4.76025 11.9995 4.76025C16.3995 4.76025 19.9795 8.34025 19.9795 12.7403C19.9795 17.1403 16.3995 20.7203 11.9995 20.7203ZM12.7495 5.74025L8.24953 14.2403H11.3895V19.7403L15.7495 11.2403H12.7495V5.74025Z" [attr.fill]="fillColor"/>
</svg>
