<svg width="100" height="100" viewBox="0 0 100 100" fill="none" xmlns="http://www.w3.org/2000/svg">
  <path d="M79.1667 20.8333V79.1667H20.8333V20.8333H79.1667ZM83.75 12.5H16.25C14.1667 12.5 12.5 14.1667 12.5 16.25V83.75C12.5 85.4167 14.1667 87.5 16.25 87.5H83.75C85.4167 87.5 87.5 85.4167 87.5 83.75V16.25C87.5 14.1667 85.4167 12.5 83.75 12.5ZM45.8333 29.1667H70.8333V37.5H45.8333V29.1667ZM45.8333 45.8333H70.8333V54.1667H45.8333V45.8333ZM45.8333 62.5H70.8333V70.8333H45.8333V62.5ZM29.1667 29.1667H37.5V37.5H29.1667V29.1667ZM29.1667 45.8333H37.5V54.1667H29.1667V45.8333ZM29.1667 62.5H37.5V70.8333H29.1667V62.5Z" fill="#28343D"/>
</svg>
