<svg width="146" height="146" viewBox="0 0 146 146" fill="none" xmlns="http://www.w3.org/2000/svg">
<g id="IconsLarge/check_circle_24px">
<path id="icon/action/check_circle_24px" fill-rule="evenodd" clip-rule="evenodd" d="M12.167 73.0001C12.167 39.4201 39.4203 12.1667 73.0003 12.1667C106.58 12.1667 133.834 39.4201 133.834 73.0001C133.834 106.58 106.58 133.833 73.0003 133.833C39.4203 133.833 12.167 106.58 12.167 73.0001ZM34.6764 77.2562L56.5155 99.0953C58.888 101.468 62.7814 101.468 65.093 99.0953L111.266 52.9228C113.638 50.5503 113.638 46.7178 111.266 44.3453C108.893 41.9728 105.061 41.9728 102.688 44.3453L60.8347 86.1987L43.2539 68.6787C40.8814 66.3062 37.0489 66.3062 34.6764 68.6787C33.5373 69.8152 32.8971 71.3583 32.8971 72.9674C32.8971 74.5766 33.5373 76.1196 34.6764 77.2562Z" fill="#70C624"/>
</g>
</svg>
