<svg width="146" height="146" viewBox="0 0 146 146" fill="none" xmlns="http://www.w3.org/2000/svg">
<path d="M73 77.5625C82.9158 77.5625 91.6758 79.935 98.7933 83.0375C105.363 85.9575 109.5 92.5275 109.5 99.645V109.5H36.5V99.7058C36.5 92.5275 40.6367 85.9575 47.2067 83.0983C54.3242 79.935 63.0842 77.5625 73 77.5625ZM24.3333 79.0833C31.025 79.0833 36.5 73.6083 36.5 66.9167C36.5 60.225 31.025 54.75 24.3333 54.75C17.6417 54.75 12.1667 60.225 12.1667 66.9167C12.1667 73.6083 17.6417 79.0833 24.3333 79.0833ZM31.2075 85.775C28.9567 85.41 26.7058 85.1667 24.3333 85.1667C18.3108 85.1667 12.5925 86.4442 7.42167 88.695C2.92 90.6417 0 95.0217 0 99.9492V109.5H27.375V99.7058C27.375 94.6567 28.7742 89.9117 31.2075 85.775ZM121.667 79.0833C128.358 79.0833 133.833 73.6083 133.833 66.9167C133.833 60.225 128.358 54.75 121.667 54.75C114.975 54.75 109.5 60.225 109.5 66.9167C109.5 73.6083 114.975 79.0833 121.667 79.0833ZM146 99.9492C146 95.0217 143.08 90.6417 138.578 88.695C133.408 86.4442 127.689 85.1667 121.667 85.1667C119.294 85.1667 117.043 85.41 114.793 85.775C117.226 89.9117 118.625 94.6567 118.625 99.7058V109.5H146V99.9492ZM73 36.5C83.0983 36.5 91.25 44.6517 91.25 54.75C91.25 64.8483 83.0983 73 73 73C62.9017 73 54.75 64.8483 54.75 54.75C54.75 44.6517 62.9017 36.5 73 36.5Z" fill="#28343D"/>
</svg>
