<svg width="100" height="100" viewBox="0 0 100 100" fill="none" xmlns="http://www.w3.org/2000/svg">
  <path fill-rule="evenodd" clip-rule="evenodd" d="M20.8333 25.0001H79.1666C81.4583 25.0001 83.3333 23.1251 83.3333 20.8334C83.3333 18.5417 81.4583 16.6667 79.1666 16.6667H20.8333C18.5416 16.6667 16.6666 18.5417 16.6666 20.8334C16.6666 23.1251 18.5416 25.0001 20.8333 25.0001ZM84.0002 32.5001C83.6252 30.5834 81.9168 29.1667 79.9168 29.1667H20.0835C18.0835 29.1667 16.3752 30.5834 16.0002 32.5001L11.8335 53.3334C11.3335 55.9167 13.2919 58.3334 15.9169 58.3334H16.6669V79.1667C16.6669 81.4584 18.5419 83.3334 20.8335 83.3334H54.1668C56.4585 83.3334 58.3335 81.4584 58.3335 79.1667V58.3334H75.0002V79.1667C75.0002 81.4584 76.8752 83.3334 79.1669 83.3334C81.4585 83.3334 83.3335 81.4584 83.3335 79.1667V58.3334H84.0835C86.7085 58.3334 88.6668 55.9167 88.1668 53.3334L84.0002 32.5001ZM25 75.0001H50V58.3334H25V75.0001Z" fill="#28343D"/>
</svg>
