<svg width="100" height="100" viewBox="0 0 100 100" fill="none" xmlns="http://www.w3.org/2000/svg">
  <path d="M50 53.125C56.7917 53.125 62.7917 54.75 67.6667 56.875C72.1667 58.875 75 63.375 75 68.25V75H25V68.2917C25 63.375 27.8333 58.875 32.3333 56.9167C37.2083 54.75 43.2083 53.125 50 53.125ZM16.6667 54.1667C21.25 54.1667 25 50.4167 25 45.8333C25 41.25 21.25 37.5 16.6667 37.5C12.0833 37.5 8.33333 41.25 8.33333 45.8333C8.33333 50.4167 12.0833 54.1667 16.6667 54.1667ZM21.375 58.75C19.8333 58.5 18.2917 58.3333 16.6667 58.3333C12.5417 58.3333 8.625 59.2083 5.08333 60.75C2 62.0833 0 65.0833 0 68.4583V75H18.75V68.2917C18.75 64.8333 19.7083 61.5833 21.375 58.75ZM83.3333 54.1667C87.9167 54.1667 91.6667 50.4167 91.6667 45.8333C91.6667 41.25 87.9167 37.5 83.3333 37.5C78.75 37.5 75 41.25 75 45.8333C75 50.4167 78.75 54.1667 83.3333 54.1667ZM100 68.4583C100 65.0833 98 62.0833 94.9167 60.75C91.375 59.2083 87.4583 58.3333 83.3333 58.3333C81.7083 58.3333 80.1667 58.5 78.625 58.75C80.2917 61.5833 81.25 64.8333 81.25 68.2917V75H100V68.4583ZM50 25C56.9167 25 62.5 30.5833 62.5 37.5C62.5 44.4167 56.9167 50 50 50C43.0833 50 37.5 44.4167 37.5 37.5C37.5 30.5833 43.0833 25 50 25Z" fill="#28343D"/>
</svg>
